<?xml version="1.0" encoding="utf-8"?>
<!-- Generator: Adobe Illustrator 20.0.0, SVG Export Plug-In . SVG Version: 6.00 Build 0)  -->
<svg version="1.1" xmlns="http://www.w3.org/2000/svg" xmlns:xlink="http://www.w3.org/1999/xlink" x="0px" y="0px"
	 viewBox="0 0 341.3 217.6" style="enable-background:new 0 0 341.3 217.6;" xml:space="preserve">
<style type="text/css">
	.st0{filter:url(#filter-2);}
	.st1{fill:#FFFFFF;}
	.st2{fill:url(#);fill-opacity:5.000000e-02;}
	.st3{fill:#63B4E1;}
	.st4{fill:#939598;}
	.st5{fill:#FCD9D3;}
	.st6{fill:#F15E6C;}
	.st7{fill:#FDE0D2;}
	.st8{fill:#F37456;}
	.st9{fill:#DBEFE6;}
	.st10{fill:#4ABB8A;}
	.st11{fill:#F04D5C;}
	.st12{fill:#52A3D9;}
	.st13{fill:#646464;}
	.st14{fill:#449FD8;}
	.st15{fill:#9B9B9B;}
	.st16{fill:#D8E5F5;}
	.st17{fill:#51A3D9;}
	.st18{fill:#010101;}
	.st19{fill:#F3757E;}
	.st20{fill:none;stroke:#646464;stroke-width:0.5;stroke-linecap:square;}
	.st21{fill:none;stroke:#979797;stroke-linecap:square;stroke-dasharray:6;}
</style>
<g id="Layer_1">
</g>
<g id="Layer_2">
	<g id="Group-26_2_" transform="translate(382.000000, 0.000000)">
		<path id="required-software-on_2_" class="st13" d="M-212.9,201.7h0.4l0,0.9h0c0.2-0.3,0.4-0.6,0.6-0.8c0.2-0.2,0.5-0.3,0.8-0.3
			c0.1,0,0.2,0,0.3,0c0.1,0,0.2,0,0.2,0.1l-0.1,0.4c-0.1,0-0.2-0.1-0.2-0.1c-0.1,0-0.1,0-0.2,0c-0.2,0-0.5,0.1-0.7,0.3
			c-0.3,0.2-0.5,0.5-0.7,1v3.5h-0.5V201.7z M-209.7,204.3c0-0.4,0.1-0.8,0.2-1.1c0.1-0.3,0.3-0.6,0.5-0.8s0.4-0.4,0.7-0.5
			c0.3-0.1,0.5-0.2,0.8-0.2c0.6,0,1.1,0.2,1.4,0.6c0.3,0.4,0.5,1,0.5,1.7v0.2c0,0.1,0,0.1,0,0.2h-3.7c0,0.3,0.1,0.6,0.1,0.9
			c0.1,0.3,0.2,0.5,0.4,0.7c0.2,0.2,0.4,0.3,0.6,0.5c0.2,0.1,0.5,0.2,0.8,0.2c0.3,0,0.5,0,0.8-0.1c0.2-0.1,0.4-0.2,0.6-0.3l0.2,0.4
			c-0.2,0.1-0.4,0.2-0.7,0.3c-0.2,0.1-0.6,0.2-0.9,0.2c-0.3,0-0.6-0.1-0.9-0.2c-0.3-0.1-0.5-0.3-0.8-0.5s-0.4-0.5-0.5-0.8
			C-209.6,205.1-209.7,204.7-209.7,204.3L-209.7,204.3z M-205.9,204c0-0.7-0.1-1.2-0.4-1.5s-0.6-0.5-1.1-0.5c-0.2,0-0.4,0-0.6,0.1
			c-0.2,0.1-0.4,0.2-0.5,0.4c-0.2,0.2-0.3,0.4-0.4,0.6c-0.1,0.2-0.2,0.5-0.2,0.8H-205.9z M-204.1,204.3c0-0.4,0.1-0.8,0.2-1.1
			c0.1-0.3,0.3-0.6,0.5-0.9c0.2-0.2,0.5-0.4,0.7-0.5c0.3-0.1,0.6-0.2,0.9-0.2c0.3,0,0.6,0.1,0.8,0.2c0.2,0.1,0.5,0.3,0.7,0.4h0
			l0.1-0.5h0.4v7.4h-0.5v-2l0-1c-0.2,0.2-0.5,0.4-0.8,0.5c-0.3,0.2-0.6,0.2-0.9,0.2c-0.6,0-1.2-0.2-1.5-0.7
			C-204,205.8-204.1,205.1-204.1,204.3L-204.1,204.3z M-203.6,204.3c0,0.3,0,0.7,0.1,0.9c0.1,0.3,0.2,0.5,0.3,0.7
			c0.1,0.2,0.3,0.3,0.5,0.5c0.2,0.1,0.4,0.2,0.7,0.2c0.3,0,0.6-0.1,0.8-0.2c0.3-0.1,0.5-0.4,0.8-0.6v-3c-0.3-0.2-0.5-0.4-0.8-0.5
			c-0.2-0.1-0.5-0.1-0.7-0.1c-0.3,0-0.5,0.1-0.7,0.2c-0.2,0.1-0.4,0.3-0.6,0.5c-0.2,0.2-0.3,0.4-0.4,0.7
			C-203.6,203.6-203.6,203.9-203.6,204.3L-203.6,204.3z M-197.7,201.7h0.5v3.2c0,0.5,0.1,1,0.3,1.2c0.2,0.3,0.5,0.4,0.9,0.4
			c0.3,0,0.6-0.1,0.8-0.3c0.2-0.2,0.5-0.4,0.8-0.8v-3.8h0.5v5.1h-0.4l-0.1-0.9h0c-0.2,0.3-0.5,0.5-0.8,0.7c-0.3,0.2-0.6,0.3-0.9,0.3
			c-0.5,0-0.9-0.2-1.2-0.5c-0.2-0.3-0.4-0.8-0.4-1.5V201.7z M-191.4,200.5c-0.1,0-0.2,0-0.3-0.1c-0.1-0.1-0.1-0.2-0.1-0.3
			c0-0.1,0-0.2,0.1-0.3c0.1-0.1,0.2-0.1,0.3-0.1s0.2,0,0.3,0.1c0.1,0.1,0.1,0.2,0.1,0.3c0,0.1,0,0.2-0.1,0.3
			C-191.1,200.4-191.2,200.5-191.4,200.5L-191.4,200.5z M-191.6,201.7h0.5v5.1h-0.5V201.7z M-188.8,201.7h0.4l0,0.9h0
			c0.2-0.3,0.4-0.6,0.6-0.8s0.5-0.3,0.8-0.3c0.1,0,0.2,0,0.3,0c0.1,0,0.2,0,0.2,0.1l-0.1,0.4c-0.1,0-0.2-0.1-0.2-0.1
			c-0.1,0-0.1,0-0.2,0c-0.2,0-0.5,0.1-0.7,0.3s-0.5,0.5-0.7,1v3.5h-0.5V201.7z M-185.6,204.3c0-0.4,0.1-0.8,0.2-1.1
			c0.1-0.3,0.3-0.6,0.5-0.8s0.4-0.4,0.7-0.5c0.3-0.1,0.5-0.2,0.8-0.2c0.6,0,1.1,0.2,1.4,0.6c0.3,0.4,0.5,1,0.5,1.7v0.2
			c0,0.1,0,0.1,0,0.2h-3.7c0,0.3,0.1,0.6,0.1,0.9s0.2,0.5,0.4,0.7s0.4,0.3,0.6,0.5s0.5,0.2,0.8,0.2c0.3,0,0.5,0,0.8-0.1
			c0.2-0.1,0.4-0.2,0.6-0.3l0.2,0.4c-0.2,0.1-0.4,0.2-0.7,0.3c-0.2,0.1-0.6,0.2-0.9,0.2c-0.3,0-0.6-0.1-0.9-0.2
			c-0.3-0.1-0.5-0.3-0.8-0.5s-0.4-0.5-0.5-0.8C-185.5,205.1-185.6,204.7-185.6,204.3L-185.6,204.3z M-181.8,204
			c0-0.7-0.1-1.2-0.4-1.5s-0.6-0.5-1.1-0.5c-0.2,0-0.4,0-0.6,0.1c-0.2,0.1-0.4,0.2-0.5,0.4c-0.2,0.2-0.3,0.4-0.4,0.6
			s-0.2,0.5-0.2,0.8H-181.8z M-180.1,204.3c0-0.4,0.1-0.8,0.2-1.1c0.1-0.3,0.3-0.6,0.5-0.9c0.2-0.2,0.5-0.4,0.7-0.5
			c0.3-0.1,0.6-0.2,0.9-0.2c0.3,0,0.6,0.1,0.8,0.2c0.2,0.1,0.5,0.3,0.7,0.5l0-0.9v-2.1h0.5v7.7h-0.4l0-0.7h0
			c-0.2,0.2-0.4,0.4-0.7,0.5c-0.3,0.2-0.6,0.2-0.9,0.2c-0.6,0-1.2-0.2-1.5-0.7S-180.1,205.1-180.1,204.3L-180.1,204.3z
			 M-179.6,204.3c0,0.3,0,0.7,0.1,0.9c0.1,0.3,0.2,0.5,0.3,0.7c0.1,0.2,0.3,0.3,0.5,0.5c0.2,0.1,0.4,0.2,0.7,0.2
			c0.3,0,0.6-0.1,0.8-0.2c0.3-0.1,0.5-0.4,0.8-0.6v-3c-0.3-0.2-0.5-0.4-0.8-0.5c-0.2-0.1-0.5-0.1-0.7-0.1c-0.3,0-0.5,0.1-0.7,0.2
			c-0.2,0.1-0.4,0.3-0.6,0.5c-0.2,0.2-0.3,0.4-0.4,0.7C-179.5,203.6-179.6,203.9-179.6,204.3L-179.6,204.3z M-171.3,205.9
			c0.2,0.2,0.5,0.3,0.7,0.5c0.2,0.1,0.6,0.2,0.9,0.2c0.4,0,0.7-0.1,0.9-0.3c0.2-0.2,0.3-0.4,0.3-0.7c0-0.2,0-0.3-0.1-0.4
			c-0.1-0.1-0.2-0.2-0.3-0.3c-0.1-0.1-0.3-0.2-0.4-0.2c-0.1-0.1-0.3-0.1-0.4-0.2c-0.2-0.1-0.4-0.1-0.6-0.2c-0.2-0.1-0.4-0.2-0.5-0.3
			c-0.2-0.1-0.3-0.2-0.4-0.4s-0.1-0.3-0.1-0.6c0-0.2,0-0.4,0.1-0.5c0.1-0.2,0.2-0.3,0.3-0.4c0.1-0.1,0.3-0.2,0.5-0.3
			c0.2-0.1,0.4-0.1,0.7-0.1c0.3,0,0.5,0,0.8,0.1c0.3,0.1,0.5,0.2,0.7,0.4l-0.3,0.3c-0.2-0.1-0.4-0.2-0.5-0.3s-0.4-0.1-0.7-0.1
			c-0.2,0-0.4,0-0.5,0.1c-0.1,0.1-0.3,0.1-0.4,0.2c-0.1,0.1-0.2,0.2-0.2,0.3s-0.1,0.2-0.1,0.3c0,0.1,0,0.3,0.1,0.4
			c0.1,0.1,0.2,0.2,0.3,0.3c0.1,0.1,0.2,0.1,0.4,0.2c0.1,0.1,0.3,0.1,0.4,0.2c0.2,0.1,0.4,0.2,0.6,0.2c0.2,0.1,0.4,0.2,0.5,0.3
			c0.2,0.1,0.3,0.3,0.4,0.4c0.1,0.2,0.1,0.4,0.1,0.6c0,0.2,0,0.4-0.1,0.5c-0.1,0.2-0.2,0.3-0.3,0.5c-0.1,0.1-0.3,0.2-0.5,0.3
			c-0.2,0.1-0.5,0.1-0.7,0.1c-0.4,0-0.7-0.1-1.1-0.2c-0.3-0.1-0.6-0.3-0.8-0.5L-171.3,205.9z M-166.7,204.3c0-0.4,0.1-0.8,0.2-1.1
			c0.1-0.3,0.3-0.6,0.5-0.8s0.5-0.4,0.7-0.5c0.3-0.1,0.6-0.2,0.9-0.2s0.6,0.1,0.9,0.2s0.5,0.3,0.7,0.5s0.4,0.5,0.5,0.8
			c0.1,0.3,0.2,0.7,0.2,1.1s-0.1,0.8-0.2,1.1c-0.1,0.3-0.3,0.6-0.5,0.8s-0.5,0.4-0.7,0.5c-0.3,0.1-0.6,0.2-0.9,0.2s-0.6-0.1-0.9-0.2
			c-0.3-0.1-0.5-0.3-0.7-0.5s-0.4-0.5-0.5-0.8C-166.6,205.1-166.7,204.7-166.7,204.3L-166.7,204.3z M-166.2,204.3
			c0,0.3,0,0.6,0.1,0.9c0.1,0.3,0.2,0.5,0.4,0.7c0.2,0.2,0.3,0.4,0.6,0.5c0.2,0.1,0.5,0.2,0.7,0.2c0.3,0,0.5-0.1,0.7-0.2
			c0.2-0.1,0.4-0.3,0.6-0.5c0.2-0.2,0.3-0.4,0.4-0.7c0.1-0.3,0.1-0.6,0.1-0.9c0-0.3,0-0.7-0.1-0.9c-0.1-0.3-0.2-0.5-0.4-0.7
			s-0.4-0.4-0.6-0.5c-0.2-0.1-0.5-0.2-0.7-0.2c-0.3,0-0.5,0.1-0.7,0.2c-0.2,0.1-0.4,0.3-0.6,0.5c-0.2,0.2-0.3,0.4-0.4,0.7
			C-166.2,203.6-166.2,203.9-166.2,204.3L-166.2,204.3z M-155.5,206.7c-0.1,0.1-0.3,0.1-0.5,0.1s-0.3,0.1-0.4,0.1
			c-0.2,0-0.5,0-0.6-0.1c-0.2-0.1-0.3-0.2-0.4-0.3c-0.1-0.1-0.2-0.3-0.2-0.5c0-0.2-0.1-0.4-0.1-0.6v-3.3h-2v4.7h-0.5v-4.7h-0.7v-0.4
			l0.7,0v-1.1c0-0.5,0.1-0.9,0.3-1.2c0.2-0.3,0.5-0.4,0.9-0.4c0.2,0,0.5,0.1,0.7,0.2l-0.1,0.4c-0.1-0.1-0.2-0.1-0.3-0.1
			c-0.1,0-0.2,0-0.3,0c-0.3,0-0.5,0.1-0.6,0.3c-0.1,0.2-0.2,0.5-0.2,0.9v1.1h2l0.1-1.5h0.4v1.5h1.5v0.4h-1.5v3.3c0,0.2,0,0.3,0,0.4
			c0,0.1,0.1,0.2,0.1,0.3s0.2,0.2,0.3,0.2s0.3,0.1,0.4,0.1c0.1,0,0.2,0,0.3,0s0.2-0.1,0.3-0.1L-155.5,206.7z M-154.8,201.7h0.5
			l0.9,3.3c0.1,0.2,0.1,0.5,0.2,0.7s0.1,0.4,0.2,0.7h0c0.1-0.2,0.1-0.5,0.2-0.7c0.1-0.2,0.1-0.5,0.2-0.7l0.9-3.3h0.6l0.9,3.3
			c0.1,0.2,0.1,0.5,0.2,0.7s0.1,0.4,0.2,0.7h0c0.1-0.2,0.1-0.5,0.2-0.7c0.1-0.2,0.1-0.5,0.2-0.7l0.9-3.3h0.5l-1.5,5.1h-0.6l-0.9-3.2
			c-0.1-0.2-0.1-0.5-0.2-0.7c-0.1-0.2-0.1-0.5-0.2-0.7h0c-0.1,0.2-0.1,0.5-0.2,0.7c-0.1,0.2-0.1,0.5-0.2,0.7l-0.9,3.2h-0.6
			L-154.8,201.7z M-146.8,205.5c0-0.6,0.3-1,0.8-1.3c0.5-0.3,1.4-0.5,2.5-0.6c0-0.2,0-0.4,0-0.6c0-0.2-0.1-0.4-0.2-0.5
			s-0.2-0.3-0.4-0.4c-0.2-0.1-0.4-0.1-0.6-0.1c-0.3,0-0.7,0.1-0.9,0.2s-0.5,0.3-0.7,0.4l-0.2-0.4c0.1-0.1,0.2-0.1,0.3-0.2
			s0.3-0.1,0.4-0.2c0.2-0.1,0.3-0.1,0.5-0.2c0.2,0,0.4-0.1,0.6-0.1c0.3,0,0.6,0.1,0.8,0.2s0.4,0.2,0.5,0.4c0.1,0.2,0.2,0.4,0.3,0.6
			c0.1,0.2,0.1,0.5,0.1,0.8v3.3h-0.4l-0.1-0.7h0c-0.3,0.2-0.5,0.4-0.8,0.5c-0.3,0.2-0.6,0.2-1,0.2c-0.2,0-0.4,0-0.6-0.1
			c-0.2-0.1-0.3-0.1-0.5-0.3s-0.2-0.3-0.3-0.4C-146.7,206-146.8,205.8-146.8,205.5L-146.8,205.5z M-146.3,205.5
			c0,0.4,0.1,0.6,0.3,0.8s0.5,0.2,0.8,0.2c0.3,0,0.6-0.1,0.9-0.2c0.3-0.1,0.6-0.3,0.9-0.6V204c-0.5,0.1-1,0.1-1.3,0.2
			s-0.6,0.2-0.9,0.3c-0.2,0.1-0.4,0.3-0.5,0.4C-146.2,205.1-146.3,205.3-146.3,205.5L-146.3,205.5z M-140.8,201.7h0.4l0,0.9h0
			c0.2-0.3,0.4-0.6,0.6-0.8c0.2-0.2,0.5-0.3,0.8-0.3c0.1,0,0.2,0,0.3,0c0.1,0,0.2,0,0.2,0.1l-0.1,0.4c-0.1,0-0.2-0.1-0.2-0.1
			c-0.1,0-0.1,0-0.2,0c-0.2,0-0.5,0.1-0.7,0.3s-0.5,0.5-0.7,1v3.5h-0.5V201.7z M-137.6,204.3c0-0.4,0.1-0.8,0.2-1.1
			c0.1-0.3,0.3-0.6,0.5-0.8s0.4-0.4,0.7-0.5c0.3-0.1,0.5-0.2,0.8-0.2c0.6,0,1.1,0.2,1.4,0.6c0.3,0.4,0.5,1,0.5,1.7v0.2
			c0,0.1,0,0.1,0,0.2h-3.7c0,0.3,0.1,0.6,0.1,0.9s0.2,0.5,0.4,0.7c0.2,0.2,0.4,0.3,0.6,0.5s0.5,0.2,0.8,0.2c0.3,0,0.5,0,0.8-0.1
			c0.2-0.1,0.4-0.2,0.6-0.3l0.2,0.4c-0.2,0.1-0.4,0.2-0.7,0.3c-0.2,0.1-0.6,0.2-0.9,0.2c-0.3,0-0.6-0.1-0.9-0.2
			c-0.3-0.1-0.5-0.3-0.8-0.5s-0.4-0.5-0.5-0.8C-137.5,205.1-137.6,204.7-137.6,204.3L-137.6,204.3z M-133.8,204
			c0-0.7-0.1-1.2-0.4-1.5s-0.6-0.5-1.1-0.5c-0.2,0-0.4,0-0.6,0.1c-0.2,0.1-0.4,0.2-0.5,0.4c-0.2,0.2-0.3,0.4-0.4,0.6
			c-0.1,0.2-0.2,0.5-0.2,0.8H-133.8z M-129.6,204.3c0-0.4,0.1-0.8,0.2-1.1c0.1-0.3,0.3-0.6,0.5-0.8c0.2-0.2,0.5-0.4,0.7-0.5
			c0.3-0.1,0.6-0.2,0.9-0.2s0.6,0.1,0.9,0.2s0.5,0.3,0.7,0.5s0.4,0.5,0.5,0.8c0.1,0.3,0.2,0.7,0.2,1.1s-0.1,0.8-0.2,1.1
			c-0.1,0.3-0.3,0.6-0.5,0.8s-0.5,0.4-0.7,0.5c-0.3,0.1-0.6,0.2-0.9,0.2s-0.6-0.1-0.9-0.2c-0.3-0.1-0.5-0.3-0.7-0.5
			c-0.2-0.2-0.4-0.5-0.5-0.8C-129.5,205.1-129.6,204.7-129.6,204.3L-129.6,204.3z M-129.1,204.3c0,0.3,0,0.6,0.1,0.9
			c0.1,0.3,0.2,0.5,0.4,0.7c0.2,0.2,0.3,0.4,0.6,0.5c0.2,0.1,0.5,0.2,0.7,0.2c0.3,0,0.5-0.1,0.7-0.2c0.2-0.1,0.4-0.3,0.6-0.5
			c0.2-0.2,0.3-0.4,0.4-0.7c0.1-0.3,0.1-0.6,0.1-0.9c0-0.3,0-0.7-0.1-0.9c-0.1-0.3-0.2-0.5-0.4-0.7s-0.4-0.4-0.6-0.5
			c-0.2-0.1-0.5-0.2-0.7-0.2c-0.3,0-0.5,0.1-0.7,0.2c-0.2,0.1-0.4,0.3-0.6,0.5c-0.2,0.2-0.3,0.4-0.4,0.7
			C-129,203.6-129.1,203.9-129.1,204.3L-129.1,204.3z M-123.1,201.7h0.4l0,0.8h0c0.3-0.3,0.5-0.5,0.8-0.7c0.3-0.2,0.6-0.3,0.9-0.3
			c0.5,0,0.9,0.2,1.2,0.5c0.2,0.3,0.4,0.8,0.4,1.5v3.3h-0.5v-3.2c0-0.5-0.1-1-0.3-1.2c-0.2-0.3-0.5-0.4-0.9-0.4
			c-0.3,0-0.6,0.1-0.8,0.2c-0.2,0.2-0.5,0.4-0.8,0.7v3.9h-0.5V201.7z M-117,199.1h0.5v7c0,0.1,0,0.2,0.1,0.3s0.1,0.1,0.2,0.1h0.1
			c0,0,0.1,0,0.1,0l0.1,0.4c0,0-0.1,0-0.1,0c0,0-0.1,0-0.2,0c-0.4,0-0.6-0.3-0.6-0.8V199.1z M-114.7,208.6c0.1,0,0.1,0,0.2,0.1
			s0.1,0,0.2,0c0.3,0,0.6-0.1,0.8-0.4c0.2-0.3,0.4-0.6,0.5-1l0.1-0.4l-2.1-5.2h0.5l1.2,3.2c0.1,0.2,0.2,0.4,0.3,0.7
			c0.1,0.3,0.2,0.5,0.3,0.7h0c0.1-0.2,0.2-0.5,0.2-0.7c0.1-0.3,0.2-0.5,0.2-0.7l1.1-3.2h0.5l-2,5.8c-0.1,0.2-0.2,0.4-0.3,0.6
			c-0.1,0.2-0.2,0.4-0.4,0.5c-0.1,0.2-0.3,0.3-0.5,0.4c-0.2,0.1-0.4,0.1-0.6,0.1c-0.2,0-0.4,0-0.5-0.1L-114.7,208.6z"/>
		<g id="Group-9_2_" transform="translate(0.947668, 0.000000)">
			<rect id="Rectangle_4_" x="-372.9" y="41.8" class="st1" width="316.3" height="146.5"/>
			<g id="CoreOS-and-Your-Containers-13_2_">
				<g id="Layer_12_4_">
					<path id="Shape_447_" class="st14" d="M-220.7,19l-3.9-7.8h1l2,4.1l0.7,1.4c0.2,0.5,0.5,0.9,0.7,1.4h0.1
						c0.3-0.5,0.5-0.9,0.7-1.4c0.2-0.5,0.5-0.9,0.7-1.4l2-4.1h0.9l-3.9,7.8v5.3h-0.9L-220.7,19L-220.7,19z"/>
					<path id="Shape_446_" class="st14" d="M-215.1,19.5c0-0.7,0.1-1.4,0.3-2.1c0.2-0.6,0.5-1.1,0.9-1.6c0.8-0.8,1.8-1.3,3-1.3
						c0.6,0,1.1,0.1,1.6,0.3c0.5,0.2,1,0.6,1.4,1c0.4,0.5,0.7,1,0.9,1.6c0.2,0.7,0.4,1.4,0.3,2.1c0,0.7-0.1,1.4-0.3,2.1
						c-0.2,0.6-0.5,1.1-0.9,1.6c-0.4,0.4-0.8,0.7-1.4,1c-0.5,0.2-1.1,0.3-1.6,0.3c-1.1,0-2.2-0.5-3-1.3c-0.4-0.5-0.7-1-0.9-1.6
						C-215,20.9-215.1,20.2-215.1,19.5L-215.1,19.5z M-214.2,19.5c0,0.6,0.1,1.2,0.3,1.7c0.2,0.5,0.4,0.9,0.7,1.3
						c0.3,0.4,0.6,0.7,1.1,0.9c0.4,0.2,0.9,0.3,1.3,0.3c0.5,0,0.9-0.1,1.3-0.3c0.4-0.2,0.8-0.5,1.1-0.9c0.3-0.4,0.5-0.8,0.7-1.3
						c0.2-0.6,0.3-1.1,0.3-1.7c0-0.6-0.1-1.2-0.3-1.7c-0.2-0.5-0.4-0.9-0.7-1.3c-0.3-0.4-0.7-0.7-1.1-0.9c-0.4-0.2-0.9-0.3-1.3-0.3
						c-0.5,0-0.9,0.1-1.3,0.3c-0.4,0.2-0.8,0.5-1.1,0.9c-0.3,0.4-0.5,0.9-0.7,1.3C-214.1,18.3-214.2,18.9-214.2,19.5L-214.2,19.5z"
						/>
					<path id="Shape_445_" class="st14" d="M-204.1,14.7h0.9v6c-0.1,0.8,0.1,1.6,0.5,2.2c0.4,0.5,1,0.8,1.7,0.7
						c0.6,0,1.1-0.2,1.5-0.5c0.6-0.4,1.1-0.9,1.5-1.5v-7h0.9v9.5h-0.7l-0.1-1.6h0c-0.4,0.5-0.9,1-1.5,1.3c-0.5,0.3-1.1,0.5-1.8,0.5
						c-0.8,0.1-1.6-0.2-2.2-0.9c-0.5-0.6-0.7-1.5-0.7-2.8L-204.1,14.7L-204.1,14.7z"/>
					<path id="Shape_444_" class="st14" d="M-193.9,14.7h0.8l0.1,1.8h0.1c0.3-0.6,0.7-1,1.2-1.4c0.4-0.4,1-0.6,1.5-0.6
						c0.2,0,0.3,0,0.5,0c0.2,0,0.3,0.1,0.4,0.2l-0.2,0.8c-0.1-0.1-0.3-0.1-0.4-0.1c-0.1,0-0.3,0-0.4,0c-0.5,0-0.9,0.2-1.3,0.5
						c-0.6,0.5-1,1.2-1.3,1.9v6.5h-0.9L-193.9,14.7L-193.9,14.7z"/>
					<path id="Shape_443_" class="st14" d="M-185,17.7c0-0.9,0.1-1.9,0.4-2.8c0.2-0.8,0.6-1.5,1.1-2.1c0.5-0.6,1.1-1,1.8-1.3
						c0.7-0.3,1.5-0.5,2.3-0.5c0.7,0,1.4,0.1,2,0.5c0.5,0.3,1,0.6,1.4,1.1l-0.6,0.6c-0.3-0.4-0.8-0.7-1.2-1c-0.5-0.3-1-0.4-1.6-0.4
						c-0.7,0-1.3,0.1-1.9,0.4c-0.6,0.3-1.1,0.7-1.5,1.2c-0.4,0.6-0.7,1.2-0.9,1.9c-0.2,0.8-0.3,1.6-0.3,2.5c0,0.8,0.1,1.7,0.3,2.5
						c0.2,0.7,0.5,1.3,0.9,1.9c0.8,1,2,1.7,3.3,1.6c0.6,0,1.2-0.1,1.8-0.4c0.6-0.3,1.1-0.7,1.5-1.2l0.6,0.6c-0.5,0.6-1,1-1.7,1.4
						c-0.7,0.3-1.4,0.5-2.2,0.5c-0.8,0-1.5-0.2-2.2-0.5c-0.7-0.3-1.3-0.8-1.8-1.4c-0.5-0.6-0.9-1.4-1.1-2.1
						C-184.9,19.6-185.1,18.7-185,17.7L-185,17.7z"/>
					<path id="Shape_442_" class="st14" d="M-174.2,19.5c0-0.7,0.1-1.4,0.3-2.1c0.2-0.6,0.5-1.1,0.9-1.6c0.8-0.8,1.8-1.3,3-1.3
						c0.6,0,1.1,0.1,1.6,0.3c0.5,0.2,1,0.6,1.4,1c0.4,0.5,0.7,1,0.9,1.6c0.2,0.7,0.4,1.4,0.3,2.1c0,0.7-0.1,1.4-0.3,2.1
						c-0.2,0.6-0.5,1.1-0.9,1.6c-0.4,0.4-0.8,0.7-1.4,1c-0.5,0.2-1.1,0.3-1.6,0.3c-1.1,0-2.2-0.5-3-1.3c-0.4-0.5-0.7-1-0.9-1.6
						C-174.1,20.9-174.3,20.2-174.2,19.5L-174.2,19.5z M-173.3,19.5c0,0.6,0.1,1.2,0.3,1.7c0.2,0.5,0.4,0.9,0.7,1.3
						c0.3,0.4,0.6,0.7,1.1,0.9c0.4,0.2,0.9,0.3,1.3,0.3c0.5,0,0.9-0.1,1.3-0.3c0.4-0.2,0.8-0.5,1.1-0.9c0.3-0.4,0.6-0.8,0.7-1.3
						c0.2-0.6,0.3-1.1,0.3-1.7c0-0.6-0.1-1.2-0.3-1.7c-0.2-0.5-0.4-0.9-0.7-1.3c-0.3-0.4-0.7-0.7-1.1-0.9c-0.4-0.2-0.9-0.3-1.3-0.3
						c-0.5,0-0.9,0.1-1.3,0.3c-0.4,0.2-0.8,0.5-1.1,0.9c-0.3,0.4-0.5,0.9-0.7,1.3C-173.2,18.3-173.3,18.9-173.3,19.5L-173.3,19.5z"
						/>
					<path id="Shape_441_" class="st14" d="M-163.2,14.7h0.8l0.1,1.5h0.1c0.5-0.5,1-0.9,1.5-1.2c0.5-0.3,1.1-0.5,1.8-0.5
						c0.8-0.1,1.6,0.2,2.2,0.9c0.5,0.6,0.7,1.5,0.7,2.8v6.1h-0.9v-6c0.1-0.8-0.1-1.6-0.5-2.2c-0.4-0.5-1-0.8-1.7-0.7
						c-0.5,0-1.1,0.1-1.5,0.4c-0.6,0.4-1.1,0.8-1.6,1.3v7.2h-0.9V14.7L-163.2,14.7z"/>
					<path id="Shape_440_" class="st14" d="M-152.7,15.5h-1.5v-0.7l1.5-0.1l0.1-2.7h0.8v2.8h2.8v0.8h-2.8v6.2c0,0.3,0,0.6,0.1,0.8
						c0,0.2,0.1,0.4,0.2,0.6c0.1,0.2,0.3,0.3,0.5,0.4c0.3,0.1,0.5,0.2,0.8,0.1c0.2,0,0.4,0,0.6-0.1c0.2-0.1,0.4-0.1,0.6-0.2l0.2,0.7
						c-0.3,0.1-0.6,0.2-0.8,0.3c-0.2,0.1-0.5,0.1-0.7,0.1c-0.4,0-0.8-0.1-1.1-0.2c-0.3-0.1-0.5-0.3-0.7-0.6
						c-0.2-0.3-0.3-0.6-0.4-0.9c-0.1-0.4-0.1-0.8-0.1-1.2L-152.7,15.5L-152.7,15.5z"/>
					<path id="Shape_439_" class="st14" d="M-147.6,21.9c0-1,0.6-2,1.5-2.4c1-0.6,2.5-1,4.7-1.2c0-0.4,0-0.7-0.1-1.1
						c-0.1-0.3-0.2-0.7-0.3-1c-0.2-0.3-0.4-0.5-0.7-0.7c-0.3-0.2-0.7-0.3-1.1-0.3c-0.6,0-1.2,0.1-1.8,0.4c-0.5,0.2-0.9,0.4-1.3,0.7
						l-0.4-0.7c0.2-0.1,0.4-0.3,0.6-0.4c0.3-0.2,0.5-0.3,0.8-0.4c0.3-0.1,0.6-0.2,1-0.3c0.4-0.1,0.7-0.1,1.1-0.1
						c0.5,0,1,0.1,1.4,0.3c0.4,0.2,0.7,0.4,0.9,0.8c0.2,0.3,0.4,0.7,0.5,1.2c0.1,0.5,0.2,1,0.1,1.4v6.1h-0.7l-0.1-1.2h0
						c-0.5,0.4-1,0.7-1.6,1c-0.6,0.3-1.2,0.4-1.8,0.4c-0.4,0-0.7-0.1-1.1-0.2c-0.3-0.1-0.6-0.3-0.9-0.5c-0.3-0.2-0.5-0.5-0.6-0.8
						C-147.6,22.7-147.7,22.3-147.6,21.9L-147.6,21.9z M-146.7,21.8c-0.1,0.6,0.2,1.1,0.6,1.5c0.4,0.3,0.9,0.4,1.4,0.4
						c0.6,0,1.1-0.1,1.6-0.4c0.6-0.3,1.1-0.7,1.6-1.1V19c-0.8,0.1-1.7,0.2-2.5,0.4c-0.6,0.1-1.1,0.3-1.6,0.6
						c-0.4,0.2-0.7,0.5-0.9,0.8C-146.6,21.1-146.7,21.5-146.7,21.8L-146.7,21.8z"/>
					<path id="Shape_438_" class="st14" d="M-137.1,12.4c-0.2,0-0.4-0.1-0.6-0.2c-0.2-0.1-0.2-0.3-0.2-0.6c0-0.2,0.1-0.4,0.2-0.6
						c0.3-0.3,0.8-0.3,1.1,0c0.2,0.2,0.2,0.4,0.2,0.6c0,0.2-0.1,0.4-0.2,0.6C-136.7,12.4-136.9,12.4-137.1,12.4L-137.1,12.4z
						 M-137.5,14.7h0.9v9.5h-0.9V14.7L-137.5,14.7z"/>
					<path id="Shape_437_" class="st14" d="M-133.3,14.7h0.8l0.1,1.5h0.1c0.5-0.5,1-0.9,1.5-1.2c0.5-0.3,1.1-0.5,1.8-0.5
						c0.8-0.1,1.6,0.2,2.2,0.9c0.5,0.6,0.7,1.5,0.7,2.8v6.1h-0.9v-6c0.1-0.8-0.1-1.6-0.5-2.2c-0.4-0.5-1-0.8-1.7-0.7
						c-0.5,0-1.1,0.1-1.5,0.4c-0.6,0.4-1.1,0.8-1.6,1.3v7.2h-0.9L-133.3,14.7L-133.3,14.7z"/>
					<path id="Shape_436_" class="st14" d="M-123.9,19.5c0-0.7,0.1-1.4,0.3-2.1c0.2-0.6,0.5-1.1,0.9-1.6c0.4-0.4,0.8-0.8,1.3-1
						c0.5-0.2,1-0.3,1.5-0.3c1,0,2,0.4,2.7,1.1c0.6,0.8,1,1.8,1,3.2v0.4c0,0.1,0,0.2,0,0.4h-6.8c0,0.6,0.1,1.1,0.3,1.7
						c0.2,0.5,0.4,0.9,0.7,1.3c0.3,0.4,0.7,0.7,1.1,0.9c0.5,0.2,1,0.3,1.5,0.3c0.5,0,1-0.1,1.4-0.2c0.4-0.2,0.8-0.4,1.2-0.6l0.4,0.7
						c-0.4,0.2-0.8,0.4-1.3,0.6c-1.1,0.4-2.3,0.4-3.4,0c-0.5-0.2-1-0.6-1.4-1c-0.4-0.5-0.7-1-0.9-1.6
						C-123.8,20.9-123.9,20.2-123.9,19.5L-123.9,19.5z M-117,18.9c0-1.2-0.3-2.2-0.8-2.8c-0.5-0.6-1.3-1-2-0.9
						c-0.4,0-0.8,0.1-1.2,0.3c-0.4,0.2-0.7,0.4-1,0.7c-0.3,0.3-0.6,0.7-0.7,1.2c-0.2,0.5-0.3,1-0.4,1.5L-117,18.9L-117,18.9z"/>
					<path id="Shape_435_" class="st14" d="M-113.9,14.7h0.8l0.1,1.8h0.1c0.3-0.6,0.7-1,1.2-1.4c0.4-0.4,1-0.6,1.5-0.6
						c0.2,0,0.3,0,0.5,0c0.2,0,0.3,0.1,0.4,0.2l-0.2,0.8c-0.1-0.1-0.3-0.1-0.4-0.1c-0.1,0-0.3,0-0.4,0c-0.5,0-0.9,0.2-1.3,0.5
						c-0.6,0.5-1,1.2-1.3,1.9v6.5h-0.9L-113.9,14.7L-113.9,14.7z"/>
					<path id="Shape_434_" class="st14" d="M-108.6,22.5c0.4,0.3,0.8,0.6,1.3,0.9c0.5,0.2,1.1,0.4,1.7,0.3c0.6,0,1.2-0.2,1.7-0.6
						c0.4-0.3,0.6-0.8,0.6-1.3c0-0.3-0.1-0.6-0.2-0.8c-0.1-0.2-0.3-0.4-0.5-0.6c-0.2-0.2-0.5-0.3-0.7-0.4c-0.3-0.1-0.5-0.2-0.8-0.3
						c-0.4-0.1-0.7-0.3-1.1-0.4c-0.3-0.1-0.7-0.3-1-0.5c-0.3-0.2-0.5-0.4-0.7-0.7c-0.2-0.3-0.3-0.7-0.3-1c0-0.3,0.1-0.7,0.2-1
						c0.1-0.3,0.3-0.6,0.6-0.8c0.3-0.2,0.6-0.4,1-0.5c0.4-0.1,0.9-0.2,1.3-0.2c0.5,0,1,0.1,1.5,0.3c0.5,0.2,0.9,0.4,1.2,0.7
						l-0.5,0.6c-0.3-0.2-0.7-0.4-1-0.6c-0.4-0.2-0.8-0.3-1.3-0.2c-0.3,0-0.6,0-1,0.1c-0.2,0.1-0.5,0.2-0.7,0.4
						c-0.2,0.2-0.3,0.3-0.4,0.6c-0.1,0.2-0.1,0.4-0.1,0.6c0,0.2,0.1,0.5,0.2,0.7c0.1,0.2,0.3,0.4,0.5,0.5c0.2,0.2,0.5,0.3,0.7,0.4
						c0.3,0.1,0.5,0.2,0.8,0.3l1.1,0.4c0.4,0.1,0.7,0.3,1,0.5c0.3,0.2,0.5,0.5,0.7,0.8c0.2,0.4,0.3,0.8,0.3,1.2c0,0.4-0.1,0.7-0.2,1
						c-0.1,0.3-0.4,0.6-0.6,0.9c-0.3,0.3-0.6,0.5-1,0.6c-0.4,0.2-0.9,0.2-1.4,0.2c-0.7,0-1.3-0.1-2-0.4c-0.6-0.2-1.1-0.5-1.5-0.9
						L-108.6,22.5z"/>
					<path id="Shape_433_" class="st15" d="M-64.9,187.3h-300.2c-4.3,0-7.8-3.5-7.8-7.8V49.6c0-4.3,3.5-7.8,7.8-7.8h300.2
						c4.3,0,7.8,3.5,7.8,7.8v129.8C-57,183.8-60.6,187.3-64.9,187.3L-64.9,187.3z M-365.1,42.8c-3.8,0-6.8,3.1-6.8,6.8v129.8
						c0,3.8,3.1,6.8,6.8,6.8h300.2c3.8,0,6.8-3.1,6.8-6.8V49.6c0-3.8-3.1-6.8-6.8-6.8H-365.1L-365.1,42.8z"/>
					<path id="Shape_432_" class="st5" d="M-364.5,52.9c0-1.7,1.4-3,3.1-3h89.7c1.7,0,3.1,1.4,3.1,3v122.2c0,1.7-1.4,3-3.1,3h-89.7
						c-1.7,0-3.1-1.4-3.1-3L-364.5,52.9L-364.5,52.9z"/>
					<path id="Shape_431_" class="st6" d="M-271.8,178.7h-89.7c-0.9,0-1.9-0.4-2.5-1c-0.7-0.7-1-1.6-1-2.5V52.9c0-2,1.6-3.6,3.6-3.6
						h89.7c2,0,3.6,1.6,3.6,3.6v122.2c0,0.9-0.4,1.9-1,2.5C-269.9,178.3-270.9,178.7-271.8,178.7L-271.8,178.7z M-361.5,50.4
						c-1.4,0-2.5,1.1-2.5,2.5v122.2c0,1.4,1.1,2.5,2.5,2.5h89.7c1.4,0,2.5-1.1,2.5-2.5V52.9c0-1.4-1.1-2.5-2.5-2.5H-361.5
						L-361.5,50.4z"/>
					<path id="Shape_430_" class="st16" d="M-261.6,97c0-1.7,1.4-3.1,3.1-3.1H-68c1.7,0,3.1,1.4,3.1,3.1v34.6c0,1.7-1.4,3.1-3.1,3.1
						h-190.6c-1.7,0-3.1-1.4-3.1-3.1L-261.6,97L-261.6,97z"/>
					<path id="Shape_429_" class="st14" d="M-68,135.2h-190.6c-2,0-3.6-1.6-3.6-3.6V97c0-2,1.6-3.6,3.6-3.6H-68c2,0,3.6,1.6,3.6,3.6
						v34.6c0,0.9-0.4,1.9-1,2.5C-66.1,134.9-67.1,135.2-68,135.2L-68,135.2z M-258.6,94.5c-1.4,0-2.5,1.1-2.5,2.6v34.6
						c0,1.4,1.1,2.5,2.5,2.6H-68c1.4,0,2.5-1.1,2.5-2.6V97c0-1.4-1.1-2.5-2.5-2.6L-258.6,94.5L-258.6,94.5z"/>
					<path id="Shape_428_" class="st16" d="M-261.6,53.5c0-1.7,1.4-3.1,3.1-3.1H-68c1.7,0,3.1,1.4,3.1,3.1v34.6
						c0,1.7-1.4,3.1-3.1,3.1h-190.6c-1.7,0-3.1-1.4-3.1-3.1L-261.6,53.5L-261.6,53.5z"/>
					<path id="Shape_427_" class="st14" d="M-68,91.7h-190.6c-2,0-3.6-1.6-3.6-3.6V53.5c0-2,1.6-3.6,3.6-3.6H-68
						c2,0,3.6,1.6,3.6,3.6v34.6C-64.4,90.1-66,91.7-68,91.7L-68,91.7z M-258.6,51c-1.4,0-2.5,1.1-2.5,2.6v34.6
						c0,0.7,0.3,1.3,0.7,1.8c0.5,0.5,1.1,0.7,1.8,0.7H-68c0.7,0,1.3-0.3,1.8-0.7c0.5-0.5,0.7-1.1,0.7-1.8V53.5
						c0-1.4-1.1-2.5-2.5-2.6H-258.6L-258.6,51z"/>
					<path id="Shape_426_" class="st16" d="M-258.9,137.8h190.5c1.7,0,3.1,1.4,3.1,3.1v34.6c0,1.7-1.4,3.1-3.1,3.1h-190.6
						c-1.7,0-3.1-1.4-3.1-3.1v-34.6C-261.9,139.2-260.6,137.8-258.9,137.8z"/>
					<path id="Shape_425_" class="st14" d="M-68,178.7h-190.6c-2,0-3.6-1.6-3.6-3.6v-34.6c0-2,1.6-3.6,3.6-3.6H-68
						c2,0,3.6,1.6,3.6,3.6v34.6C-64.4,177.1-66,178.7-68,178.7L-68,178.7z M-258.6,138c-1.4,0-2.5,1.1-2.5,2.6v34.6
						c0,1.4,1.1,2.5,2.5,2.6H-68c1.4,0,2.5-1.1,2.5-2.6v-34.6c0-1.4-1.1-2.5-2.5-2.6H-258.6L-258.6,138z"/>
					<polygon id="Shape_424_" class="st11" points="-347.1,70.8 -346.1,70.8 -346.1,76.7 -346,76.7 -342.8,73.5 -341.7,73.5 
						-344,75.9 -341.4,79.5 -342.5,79.5 -344.7,76.5 -346.1,77.8 -346.1,79.5 -347.1,79.5 					"/>
					<path id="Shape_423_" class="st11" d="M-340.2,76.5c0-0.8,0.3-1.6,0.8-2.2c0.6-0.6,1.4-0.9,2.2-0.9c1.7,0,2.7,1.1,2.7,2.8
						c0,0.2,0,0.4,0,0.6h-4.7c0.1,1.3,1.1,2,2.3,2c0.6,0,1.3-0.2,1.8-0.6l0.4,0.7c-0.7,0.5-1.5,0.7-2.3,0.7
						C-338.8,79.6-340.2,78.5-340.2,76.5L-340.2,76.5z M-339.1,76h3.8c-0.1-1.2-0.8-1.8-1.8-1.8C-338.2,74.1-339.1,74.9-339.1,76
						L-339.1,76z"/>
					<path id="Shape_420_" class="st11" d="M-318.2,76.5c0-0.8,0.3-1.6,0.8-2.2c0.6-0.6,1.4-0.9,2.2-0.9c1.7,0,2.7,1.1,2.7,2.8
						c0,0.2,0,0.4,0,0.6h-4.7c0.1,1.3,1.1,2,2.3,2c0.6,0,1.3-0.2,1.8-0.6l0.4,0.7c-0.7,0.5-1.5,0.7-2.3,0.7
						C-316.8,79.6-318.2,78.5-318.2,76.5L-318.2,76.5z M-317.1,76h3.8c-0.1-1.2-0.8-1.8-1.8-1.8C-316.2,74.1-317.1,74.9-317.1,76
						L-317.1,76z"/>
					<path id="Shape_422_" class="st11" d="M-331.9,73.5h0.8l0.1,1.4h0c0.6-0.9,1.5-1.5,2.6-1.6c0.4,0,0.8,0.1,1.2,0.2l-0.2,0.9
						c-0.3-0.1-0.7-0.2-1.1-0.2c-0.9,0-1.8,0.5-2.4,1.7v3.5h-1L-331.9,73.5L-331.9,73.5z"/>
					<path id="Shape_421_" class="st11" d="M-325.2,73.5h0.8l0.1,1h0c0.6-0.7,1.3-1.2,2.2-1.2c1.4,0,2.1,0.8,2.1,2.4v3.7h-1v-3.5
						c0-1.1-0.4-1.7-1.4-1.7c-0.7,0-1.2,0.4-1.9,1.1v4.1h-1L-325.2,73.5L-325.2,73.5z"/>
					<path id="Shape_419_" class="st11" d="M-308.6,77.5v-5.9h-2v-0.8h3v6.8c0,0.9,0.5,1.2,1.2,1.2c0.4,0,0.8-0.1,1.1-0.3l0.3,0.7
						c-0.5,0.2-1,0.4-1.6,0.4C-307.9,79.6-308.6,78.9-308.6,77.5L-308.6,77.5z"/>
					<path id="Shape_418_" class="st11" d="M-347.5,98l0.5-0.7c0.8,0.5,1.7,0.8,2.6,0.8c1,0,1.5-0.4,1.5-0.9s-0.2-0.8-1.9-1.1
						c-1.5-0.3-2.3-0.8-2.3-1.8c0-0.9,0.8-1.7,2.5-1.7c0.9,0,1.7,0.3,2.4,0.8l-0.5,0.6c-0.6-0.4-1.3-0.6-2-0.6c-1,0-1.4,0.4-1.4,0.9
						c0,0.5,0.5,0.7,1.7,1c2,0.4,2.5,0.9,2.5,1.8c0,0.9-0.9,1.8-2.6,1.8C-345.6,99-346.6,98.6-347.5,98L-347.5,98z"/>
					<path id="Shape_417_" class="st11" d="M-340.2,101.2l0.2-0.8c0.2,0.1,0.4,0.1,0.5,0.1c0.8,0,1.3-0.5,1.6-1.3l0.2-0.4l-2.8-6h1
						l1.5,3.3c0.2,0.5,0.5,1.1,0.7,1.7h0c0.2-0.6,0.4-1.2,0.6-1.7l1.3-3.3h1l-2.6,6.4c-0.4,1.2-1.2,2.1-2.5,2.1
						C-339.7,101.4-339.9,101.3-340.2,101.2L-340.2,101.2z"/>
					<path id="Shape_416_" class="st11" d="M-332.8,98l0.5-0.7c0.7,0.5,1.7,0.8,2.6,0.8c1,0,1.5-0.4,1.5-0.9s-0.2-0.8-1.9-1.1
						c-1.5-0.3-2.3-0.8-2.3-1.8s0.8-1.7,2.5-1.7c0.9,0,1.7,0.3,2.4,0.8l-0.5,0.6c-0.6-0.4-1.3-0.6-2-0.6c-1,0-1.4,0.4-1.4,0.9
						s0.5,0.7,1.7,1c2,0.4,2.5,0.9,2.5,1.8c0,0.9-0.9,1.8-2.6,1.8C-330.9,98.9-331.9,98.6-332.8,98L-332.8,98z"/>
					<path id="Shape_415_" class="st11" d="M-323.8,96.5v-2.8h-1.7v-0.8l1.7-0.1l0.1-1.9h0.8v1.9h2.9v0.8h-2.9v2.8
						c0,1.1,0.4,1.6,1.5,1.6c0.5,0,1-0.1,1.4-0.3l0.2,0.7c-0.6,0.2-1.2,0.4-1.9,0.4C-323.3,99-323.8,98-323.8,96.5L-323.8,96.5z"/>
					<path id="Shape_414_" class="st11" d="M-318.2,95.8c0-0.8,0.3-1.6,0.8-2.2c0.6-0.6,1.4-0.9,2.2-0.9c1.7,0,2.7,1.1,2.7,2.8
						c0,0.2,0,0.4,0,0.6h-4.7c0.1,1.3,1.1,2,2.3,2c0.6,0,1.3-0.2,1.8-0.6l0.4,0.7c-0.7,0.5-1.5,0.7-2.3,0.7
						C-316.7,99-318.2,97.8-318.2,95.8L-318.2,95.8z M-317.1,95.3h3.8c-0.1-1.2-0.8-1.8-1.8-1.8C-316.1,93.5-317,94.3-317.1,95.3
						L-317.1,95.3z"/>
					<path id="Shape_413_" class="st11" d="M-310.1,92.9l0.1,0.8h0c0.2-0.6,0.8-0.9,1.4-0.9c0.6,0,1,0.3,1.1,1c0.3-0.6,0.7-1,1.4-1
						c0.8,0,1.3,0.6,1.3,1.8v4.2h-1v-4.2c0-0.7-0.2-1-0.6-1s-0.6,0.3-1,0.9v4.3h-0.9v-4.2c0-0.7-0.2-1-0.6-1s-0.7,0.3-1,0.9v4.3h-1
						v-5.9H-310.1z"/>
					<path id="Shape_412_" class="st11" d="M-303.6,95.9c0-1.9,1.3-3.1,2.7-3.1c0.7,0,1.3,0.3,1.8,0.8h0l0-1.1v-2.3h1v8.7h-0.8
						l-0.1-0.8h0c-0.5,0.5-1.2,0.9-1.9,0.9C-302.6,99-303.6,97.8-303.6,95.9L-303.6,95.9z M-299.1,97.2v-3c-0.4-0.4-1-0.7-1.6-0.7
						c-1,0-1.9,0.9-1.9,2.3s0.6,2.3,1.8,2.3C-300.1,98.1-299.5,97.7-299.1,97.2L-299.1,97.2z"/>
					<path id="Shape_411_" class="st11" d="M-347.5,117.4l0.5-0.7c0.8,0.5,1.7,0.8,2.6,0.8c1,0,1.5-0.4,1.5-0.9s-0.2-0.8-1.9-1.1
						c-1.5-0.3-2.3-0.8-2.3-1.8s0.8-1.7,2.5-1.7c0.9,0,1.7,0.3,2.4,0.8l-0.5,0.6c-0.6-0.4-1.3-0.6-2-0.6c-1,0-1.4,0.4-1.4,0.9
						c0,0.5,0.5,0.7,1.7,1c2,0.4,2.5,0.9,2.5,1.8c0,0.9-0.9,1.8-2.6,1.8C-345.6,118.3-346.6,118-347.5,117.4L-347.5,117.4z"/>
					<path id="Shape_410_" class="st11" d="M-340.1,117.4l0.5-0.7c0.7,0.5,1.7,0.8,2.6,0.8c1,0,1.5-0.4,1.5-0.9
						c0-0.5-0.2-0.8-1.9-1.1c-1.5-0.3-2.3-0.8-2.3-1.8s0.8-1.7,2.5-1.7c0.9,0,1.7,0.3,2.4,0.8l-0.5,0.6c-0.6-0.4-1.3-0.6-2-0.6
						c-1,0-1.4,0.4-1.4,0.9c0,0.5,0.5,0.7,1.7,1c2,0.4,2.5,0.9,2.5,1.8c0,0.9-0.9,1.8-2.6,1.8C-338.3,118.3-339.3,118-340.1,117.4
						L-340.1,117.4z"/>
					<path id="Shape_409_" class="st11" d="M-332.5,109.5h1v2.4l-0.1,1.4h0c0.6-0.7,1.3-1.2,2.2-1.2c1.4,0,2.1,0.8,2.1,2.4v3.7h-1
						v-3.5c0-1.1-0.4-1.7-1.4-1.7c-0.7,0-1.2,0.4-1.9,1.1v4.1h-1V109.5L-332.5,109.5z"/>
					<path id="Shape_408_" class="st11" d="M-325.6,115.2c0-1.9,1.3-3.1,2.7-3.1c0.7,0,1.3,0.3,1.8,0.8h0l0-1.1v-2.3h1v8.7h-0.8
						l-0.1-0.8h0c-0.5,0.5-1.2,0.9-1.9,0.9C-324.6,118.3-325.6,117.2-325.6,115.2L-325.6,115.2z M-321.1,116.6v-3
						c-0.4-0.4-1-0.7-1.6-0.7c-1,0-1.9,0.9-1.9,2.3c0,1.4,0.6,2.3,1.8,2.3C-322.2,117.4-321.5,117.1-321.1,116.6L-321.1,116.6z"/>
					<path id="Shape_407_" class="st11" d="M-347.6,134.6c0-1.9,1.3-3.1,2.7-3.1c0.7,0,1.3,0.3,1.8,0.8h0l0-1.1v-2.3h1v8.7h-0.8
						l-0.1-0.8h0c-0.5,0.5-1.2,0.9-1.9,0.9C-346.6,137.7-347.6,136.6-347.6,134.6L-347.6,134.6z M-343.2,135.9v-3
						c-0.4-0.4-1-0.7-1.6-0.7c-1,0-1.9,0.9-1.9,2.3s0.6,2.3,1.8,2.3C-344.2,136.8-343.6,136.5-343.2,135.9L-343.2,135.9z"/>
					<path id="Shape_406_" class="st11" d="M-340.3,134.6c0-2,1.4-3.1,2.9-3.1c1.6,0,2.9,1.1,2.9,3.1s-1.4,3.1-2.9,3.1
						S-340.3,136.5-340.3,134.6L-340.3,134.6z M-335.5,134.6c0-1.4-0.8-2.3-1.9-2.3s-1.9,0.9-1.9,2.3s0.8,2.3,1.9,2.3
						S-335.5,135.9-335.5,134.6L-335.5,134.6z"/>
					<path id="Shape_405_" class="st11" d="M-332.7,134.6c0-2,1.5-3.1,3.3-3.1c0.8,0,1.6,0.3,2.2,0.9l-0.5,0.6
						c-0.4-0.4-1-0.7-1.6-0.7c-0.6,0-1.2,0.2-1.7,0.6c-0.4,0.4-0.7,1-0.6,1.7c0,0.6,0.2,1.2,0.6,1.6c0.4,0.4,1,0.7,1.7,0.6
						c0.7,0,1.3-0.3,1.8-0.7l0.4,0.6c-0.6,0.6-1.5,0.9-2.4,0.9C-331.3,137.7-332.7,136.5-332.7,134.6L-332.7,134.6z"/>
					<polygon id="Shape_404_" class="st11" points="-325,128.8 -324,128.8 -324,134.7 -324,134.7 -320.8,131.6 -319.6,131.6 
						-322,133.9 -319.3,137.5 -320.4,137.5 -322.6,134.5 -324,135.9 -324,137.5 -325,137.5 					"/>
					<path id="Shape_403_" class="st11" d="M-318.2,134.5c0-0.8,0.3-1.6,0.8-2.2c0.6-0.6,1.4-0.9,2.2-0.9c1.7,0,2.7,1.1,2.7,2.8
						c0,0.2,0,0.4,0,0.6h-4.7c0.1,1.3,1.1,2,2.3,2c0.6,0,1.3-0.2,1.8-0.6l0.4,0.7c-0.7,0.5-1.5,0.7-2.3,0.7
						C-316.7,137.7-318.2,136.5-318.2,134.5L-318.2,134.5z M-317.1,134h3.8c-0.1-1.2-0.8-1.8-1.8-1.8
						C-316.1,132.2-317,133-317.1,134L-317.1,134z"/>
					<path id="Shape_402_" class="st11" d="M-309.9,131.6h0.8l0.1,1.4h0c0.6-0.9,1.5-1.5,2.6-1.6c0.4,0,0.8,0.1,1.2,0.2l-0.2,0.9
						c-0.3-0.1-0.7-0.2-1.1-0.2c-0.9,0-1.8,0.5-2.4,1.7v3.5h-1L-309.9,131.6L-309.9,131.6z"/>
					<path id="Shape_401_" class="st11" d="M-346.6,150.9h0.8l0.1,1.4h0c0.6-0.9,1.5-1.5,2.6-1.6c0.4,0,0.8,0.1,1.2,0.2l-0.2,0.9
						c-0.3-0.1-0.7-0.2-1.1-0.2c-0.9,0-1.8,0.5-2.4,1.7v3.5h-1V150.9L-346.6,150.9z"/>
					<polygon id="Shape_400_" class="st11" points="-339.7,148.2 -338.7,148.2 -338.7,154.1 -338.7,154.1 -335.5,150.9 
						-334.3,150.9 -336.7,153.3 -334,156.9 -335.1,156.9 -337.3,153.9 -338.7,155.3 -338.7,156.9 -339.7,156.9 -339.7,148.2 					
						"/>
					<path id="Shape_399_" class="st11" d="M-331.2,154.6v-2.8h-1.7V151l1.7-0.1l0.1-1.9h0.8v1.9h2.9v0.8h-2.9v2.8
						c0,1.1,0.4,1.6,1.5,1.6c0.5,0,1-0.1,1.4-0.3l0.2,0.7c-0.6,0.2-1.2,0.4-1.9,0.4C-330.6,157-331.2,156-331.2,154.6L-331.2,154.6z
						"/>
					<path id="Shape_398_" class="st17" d="M-233,66.8h2.4c1.8,0,3,0.6,3,2.4c0,1.7-1.2,2.5-3,2.5h-1.4v3.2h-1V66.8L-233,66.8z
						 M-230.7,70.8c1.4,0,2.1-0.5,2.1-1.6c0-1.1-0.7-1.5-2.1-1.5h-1.3v3.2H-230.7L-230.7,70.8z"/>
					<path id="Shape_397_" class="st17" d="M-226.1,77.2l0.2-0.8c0.2,0.1,0.4,0.1,0.5,0.1c0.8,0,1.3-0.5,1.6-1.3l0.2-0.4l-2.8-6h1
						l1.5,3.3c0.2,0.5,0.5,1.1,0.7,1.7h0c0.2-0.6,0.4-1.2,0.6-1.7l1.3-3.3h1l-2.6,6.4c-0.4,1.2-1.2,2.1-2.5,2.1
						C-225.5,77.4-225.8,77.3-226.1,77.2L-226.1,77.2z"/>
					<path id="Shape_396_" class="st17" d="M-217,72.5v-2.8h-1.7v-0.8l1.7-0.1l0.1-1.9h0.8v1.9h2.9v0.8h-2.9v2.8
						c0,1.1,0.4,1.6,1.5,1.6c0.5,0,1-0.1,1.4-0.3l0.2,0.7c-0.6,0.2-1.2,0.4-1.9,0.4C-216.5,74.9-217,74-217,72.5L-217,72.5z"/>
					<path id="Shape_395_" class="st17" d="M-211.1,66.1h1v2.4l-0.1,1.4h0c0.6-0.7,1.3-1.2,2.2-1.2c1.4,0,2.1,0.8,2.1,2.4v3.7h-1
						v-3.6c0-1.1-0.4-1.7-1.4-1.7c-0.7,0-1.2,0.4-1.9,1.1v4.1h-1V66.1L-211.1,66.1z"/>
					<path id="Shape_394_" class="st17" d="M-204.1,71.8c0-2,1.4-3.1,2.9-3.1c1.6,0,2.9,1.1,2.9,3.1c0,2-1.4,3.1-2.9,3.1
						C-202.8,74.9-204.1,73.8-204.1,71.8L-204.1,71.8z M-199.3,71.8c0-1.4-0.8-2.3-1.9-2.3s-1.9,0.9-1.9,2.3s0.8,2.3,1.9,2.3
						S-199.3,73.2-199.3,71.8L-199.3,71.8z"/>
					<path id="Shape_393_" class="st17" d="M-196.4,68.9h0.8l0.1,1h0c0.6-0.7,1.3-1.2,2.2-1.2c1.4,0,2.1,0.8,2.1,2.4v3.7h-1v-3.6
						c0-1.1-0.4-1.7-1.4-1.7c-0.7,0-1.2,0.4-1.9,1.1v4.1h-1L-196.4,68.9L-196.4,68.9z"/>
					<path id="Shape_392_" class="st17" d="M-233.2,117.1l0.6-0.6c0.3,0.6,1,1,1.7,1.1c1.1,0,1.7-0.6,1.7-1.9v-4.5h-3.4v-0.9h4.4
						v5.5c0,1.5-0.7,2.7-2.6,2.7C-231.8,118.4-232.7,117.9-233.2,117.1L-233.2,117.1z"/>
					<path id="Shape_391_" class="st17" d="M-225.9,116.8c0-1.3,1.2-2,4.3-2.2c0-0.8-0.4-1.5-1.6-1.5c-0.7,0-1.5,0.3-2.1,0.7
						l-0.4-0.7c0.8-0.5,1.7-0.8,2.6-0.9c1.6,0,2.4,1,2.4,2.4v3.6h-0.8l-0.1-0.8h0c-0.7,0.6-1.5,0.9-2.3,1
						C-225,118.4-225.9,117.8-225.9,116.8L-225.9,116.8z M-221.6,116.8v-1.6c-2.5,0.2-3.3,0.7-3.3,1.5c0,0.7,0.6,1,1.3,1
						C-222.8,117.6-222.1,117.3-221.6,116.8L-221.6,116.8z"/>
					<path id="Shape_390_" class="st17" d="M-218.9,112.4h1l1.4,3.4c0.2,0.6,0.5,1.2,0.7,1.8h0c0.2-0.6,0.4-1.1,0.6-1.8l1.4-3.4h1
						l-2.5,5.9h-1.1L-218.9,112.4z"/>
					<path id="Shape_389_" class="st17" d="M-211.2,116.8c0-1.3,1.2-2,4.3-2.2c0-0.8-0.4-1.5-1.6-1.5c-0.7,0-1.5,0.3-2.1,0.7
						l-0.4-0.7c0.8-0.5,1.7-0.8,2.6-0.9c1.6,0,2.4,1,2.4,2.4v3.6h-0.8l-0.1-0.8h0c-0.7,0.6-1.5,0.9-2.3,1
						C-210.3,118.4-211.2,117.8-211.2,116.8L-211.2,116.8z M-206.9,116.8v-1.6c-2.5,0.2-3.3,0.7-3.3,1.5c0,0.7,0.6,1,1.3,1
						C-208.2,117.6-207.5,117.3-206.9,116.8L-206.9,116.8z"/>
					<path id="Shape_388_" class="st17" d="M-233.1,155.9h0.8l0.1,1h0.1c0.6-0.7,1.3-1.2,2.2-1.2c1.4,0,2.1,0.8,2.1,2.4v3.7h-1v-3.6
						c0-1.1-0.4-1.7-1.4-1.7c-0.7,0-1.2,0.4-1.9,1.1v4.1h-1L-233.1,155.9L-233.1,155.9z"/>
					<path id="Shape_387_" class="st17" d="M-226,162.9c0-0.5,0.3-1,1-1.3v0c-0.4-0.2-0.6-0.6-0.6-1c0-0.5,0.3-0.9,0.7-1.1v-0.1
						c-0.5-0.4-0.7-0.9-0.7-1.5c0-1.3,1.1-2.1,2.3-2.1c0.3,0,0.6,0,0.9,0.1h2.5v0.8h-1.5c0.3,0.3,0.5,0.7,0.5,1.2c0,1.3-1,2-2.3,2
						c-0.3,0-0.7-0.1-1-0.2c-0.3,0.1-0.4,0.4-0.5,0.7c0,0.5,0.4,0.7,1.2,0.7h1.3c1.5,0,2.3,0.4,2.3,1.4c0,1.1-1.3,2.1-3.3,2.1
						C-225,164.5-226,163.9-226,162.9L-226,162.9z M-221,162.6c0-0.6-0.4-0.7-1.4-0.7h-1.2c-0.3,0-0.6,0-0.9-0.1
						c-0.6,0.3-0.8,0.6-0.8,1c0,0.6,0.7,1,1.9,1C-221.8,163.8-221,163.2-221,162.6L-221,162.6z M-222,157.8c0-0.8-0.6-1.3-1.4-1.3
						c-0.8,0-1.4,0.6-1.3,1.4c0,0.8,0.6,1.4,1.4,1.4c0.4,0,0.7-0.1,1-0.4C-222.1,158.6-221.9,158.2-222,157.8L-222,157.8z"/>
					<path id="Shape_386_" class="st17" d="M-215.7,156.7h-2.8v-0.8h3.8v5.9h-1V156.7L-215.7,156.7z M-216.1,153.8
						c0-0.3,0.2-0.6,0.5-0.8c0.3-0.1,0.7-0.1,0.9,0.2s0.3,0.6,0.2,0.9c-0.1,0.3-0.4,0.5-0.7,0.5c-0.2,0-0.4-0.1-0.6-0.2
						S-216.1,154-216.1,153.8L-216.1,153.8z"/>
					<path id="Shape_385_" class="st17" d="M-211.1,155.9h0.8l0.1,1h0c0.6-0.7,1.3-1.2,2.2-1.2c1.4,0,2.1,0.8,2.1,2.4v3.7h-1v-3.6
						c0-1.1-0.4-1.7-1.4-1.7c-0.7,0-1.2,0.4-1.9,1.1v4.1h-1L-211.1,155.9L-211.1,155.9z"/>
					<path id="Shape_384_" class="st17" d="M-201.8,158.7l-2.1-2.9h1.1l0.9,1.3c0.2,0.3,0.4,0.7,0.7,1h0c0.2-0.3,0.5-0.7,0.7-1
						l0.9-1.3h1.1l-2.1,2.9l2.3,3h-1.1l-1-1.4c-0.2-0.3-0.5-0.7-0.8-1.1h0c-0.2,0.4-0.5,0.7-0.7,1.1l-1,1.4h-1.1L-201.8,158.7z"/>
					<path id="Shape_383_" class="st14" d="M-124.8,67.1h1.1l2.7,8h-1.1l-0.8-2.4h-2.9l-0.8,2.4h-1L-124.8,67.1z M-125.4,71.9h2.4
						l-0.4-1.2c-0.3-0.9-0.5-1.8-0.8-2.7h0c-0.3,0.9-0.5,1.8-0.8,2.7L-125.4,71.9z"/>
					<path id="Shape_382_" class="st14" d="M-119.4,69.2h0.8l0.1,0.8h0c0.5-0.5,1.3-0.9,2.1-0.9c1.6,0,2.5,1.2,2.5,3
						c0,2-1.3,3.2-2.7,3.2c-0.7,0-1.3-0.3-1.8-0.8h0l0,1.1v2h-1L-119.4,69.2L-119.4,69.2z M-115,72.1c0-1.3-0.5-2.2-1.7-2.2
						c-0.7,0.1-1.3,0.4-1.8,0.9v3c0.4,0.4,1,0.7,1.6,0.7C-115.7,74.4-115,73.5-115,72.1L-115,72.1z"/>
					<path id="Shape_381_" class="st14" d="M-112.1,69.2h0.8l0.1,0.8h0c0.5-0.5,1.3-0.9,2.1-0.9c1.6,0,2.5,1.2,2.5,3
						c0,2-1.3,3.2-2.7,3.2c-0.7,0-1.3-0.3-1.8-0.8h0l0,1.1v2h-1L-112.1,69.2L-112.1,69.2z M-107.6,72.1c0-1.3-0.5-2.2-1.7-2.2
						c-0.7,0.1-1.3,0.4-1.8,0.9v3c0.4,0.4,1,0.7,1.6,0.7C-108.4,74.4-107.6,73.5-107.6,72.1L-107.6,72.1z"/>
					<path id="Shape_380_" class="st14" d="M-104.6,74.3h2.2v-5.7h-1.7v-0.6c0.7-0.1,1.3-0.3,1.9-0.6h0.7v7h2v0.8h-5.2V74.3
						L-104.6,74.3z"/>
					<path id="Shape_379_" class="st14" d="M-124.8,110.4h1.1l2.7,8h-1.1l-0.8-2.4h-2.9l-0.8,2.4h-1L-124.8,110.4z M-125.4,115.2
						h2.4l-0.4-1.2c-0.3-0.9-0.5-1.8-0.8-2.7h0c-0.3,0.9-0.5,1.8-0.8,2.7L-125.4,115.2z"/>
					<path id="Shape_378_" class="st14" d="M-119.4,112.5h0.8l0.1,0.8h0c0.5-0.5,1.3-0.9,2.1-0.9c1.6,0,2.5,1.2,2.5,3
						c0,2-1.3,3.2-2.7,3.2c-0.7,0-1.3-0.3-1.8-0.8h0l0,1.1v2h-1L-119.4,112.5L-119.4,112.5z M-115,115.4c0-1.3-0.5-2.2-1.7-2.2
						c-0.7,0.1-1.3,0.4-1.8,0.9v3c0.4,0.4,1,0.7,1.6,0.7C-115.7,117.8-115,116.9-115,115.4L-115,115.4z"/>
					<path id="Shape_377_" class="st14" d="M-112.1,112.5h0.8l0.1,0.8h0c0.5-0.5,1.3-0.9,2.1-0.9c1.6,0,2.5,1.2,2.5,3
						c0,2-1.3,3.2-2.7,3.2c-0.7,0-1.3-0.3-1.8-0.8h0l0,1.1v2h-1L-112.1,112.5L-112.1,112.5z M-107.6,115.4c0-1.3-0.5-2.2-1.7-2.2
						c-0.7,0.1-1.3,0.4-1.8,0.9v3c0.4,0.4,1,0.7,1.6,0.7C-108.4,117.8-107.6,116.9-107.6,115.4L-107.6,115.4z"/>
					<path id="Shape_376_" class="st14" d="M-105,117.9c2.6-2.3,4.1-3.7,4.1-5c0-0.9-0.5-1.5-1.7-1.5c-0.7,0-1.4,0.4-1.9,0.9
						l-0.6-0.6c0.6-0.7,1.6-1.2,2.6-1.2c1.6,0,2.5,0.9,2.5,2.3c0,1.5-1.5,2.9-3.6,4.9c0.5,0,1-0.1,1.5-0.1h2.6v0.9h-5.5V117.9
						L-105,117.9z"/>
					<path id="Shape_375_" class="st14" d="M-124.5,153.9h1.1l2.7,8h-1.1l-0.8-2.4h-2.9l-0.8,2.4h-1L-124.5,153.9z M-125.2,158.7
						h2.4l-0.4-1.2c-0.3-0.9-0.5-1.8-0.8-2.7h0c-0.3,0.9-0.5,1.8-0.8,2.7L-125.2,158.7z"/>
					<path id="Shape_374_" class="st14" d="M-119.2,156h0.8l0.1,0.8h0c0.5-0.5,1.3-0.9,2.1-0.9c1.6,0,2.5,1.2,2.5,3
						c0,2-1.3,3.2-2.7,3.2c-0.7,0-1.3-0.3-1.8-0.8h0l0,1.1v2h-1V156L-119.2,156z M-114.7,158.9c0-1.3-0.5-2.2-1.7-2.2
						c-0.7,0.1-1.3,0.4-1.8,0.9v3c0.4,0.4,1,0.7,1.6,0.7C-115.5,161.2-114.7,160.3-114.7,158.9L-114.7,158.9z"/>
					<path id="Shape_373_" class="st14" d="M-111.8,156h0.8l0.1,0.8h0c0.6-0.5,1.3-0.9,2.1-0.9c1.6,0,2.5,1.2,2.5,3
						c0,2-1.3,3.2-2.7,3.2c-0.7,0-1.3-0.3-1.8-0.8h0l0,1.1v2h-1L-111.8,156L-111.8,156z M-107.4,158.9c0-1.3-0.5-2.2-1.7-2.2
						c-0.7,0.1-1.3,0.4-1.8,0.9v3c0.4,0.4,1,0.7,1.6,0.7C-108.2,161.2-107.4,160.3-107.4,158.9L-107.4,158.9z"/>
					<path id="Shape_372_" class="st14" d="M-104.9,161l0.5-0.7c0.6,0.6,1.4,0.9,2.2,0.9c1.1,0,1.9-0.6,1.9-1.4s-0.8-1.6-2.8-1.6
						v-0.8c1.8,0,2.6-0.6,2.6-1.5s-0.6-1.2-1.6-1.2c-0.7,0-1.4,0.3-1.9,0.8l-0.5-0.6c0.7-0.6,1.6-1,2.5-1c1.5,0,2.6,0.7,2.6,2
						c0,0.9-0.7,1.5-1.7,1.9v0c1,0.2,1.9,0.9,1.9,2c0,1.4-1.3,2.2-2.8,2.2C-103.2,162.1-104.2,161.7-104.9,161L-104.9,161z"/>
					<path id="Shape_371_" class="st12" d="M-64.5,32.3h-0.8V20.9c0-0.6-0.5-1.1-1.1-1.1h-8.7V19h8.7c1.1,0,1.9,0.9,1.9,1.9V32.3
						L-64.5,32.3z"/>
					<path id="Shape_370_" class="st12" d="M-261.2,32.3h-0.8V20.9c0-1.1,0.9-1.9,1.9-1.9h8.7v0.8h-8.7c-0.6,0-1.1,0.5-1.1,1.1V32.3
						L-261.2,32.3z"/>
					<path id="Shape_369_" class="st12" d="M-268.4,32.3h-0.8V20.9c0-0.6-0.5-1.1-1.1-1.1h-8.7V19h8.7c1.1,0,1.9,0.9,1.9,1.9
						L-268.4,32.3L-268.4,32.3z"/>
					<path id="Shape_368_" class="st12" d="M-364.2,32.3h-0.7V20.9c0-1.1,0.9-1.9,1.9-1.9h8.7v0.8h-8.7c-0.6,0-1.1,0.5-1.1,1.1
						L-364.2,32.3L-364.2,32.3z"/>
					<path id="Shape_367_" class="st18" d="M-347.9,17.1c0-1,0.1-2,0.5-2.9c0.3-0.8,0.7-1.6,1.3-2.2c0.5-0.6,1.2-1.1,2-1.4
						c0.8-0.3,1.6-0.5,2.4-0.5c0.8,0,1.5,0.2,2.2,0.5c0.6,0.3,1.1,0.7,1.6,1.2l-1.3,1.5c-0.3-0.3-0.7-0.6-1.1-0.8
						c-0.4-0.2-0.9-0.3-1.4-0.3c-0.5,0-1,0.1-1.5,0.3c-0.5,0.2-0.9,0.5-1.2,1c-0.4,0.5-0.6,1-0.8,1.5c-0.2,0.7-0.3,1.3-0.3,2
						c0,1.5,0.3,2.7,1,3.6c0.6,0.9,1.6,1.3,2.7,1.3c0.5,0,1.1-0.1,1.6-0.3c0.5-0.3,0.9-0.6,1.2-1l1.3,1.4c-0.5,0.6-1.1,1.1-1.9,1.4
						c-0.7,0.3-1.5,0.5-2.3,0.5c-0.8,0-1.6-0.1-2.4-0.4c-0.7-0.3-1.4-0.7-1.9-1.3c-0.6-0.6-1-1.4-1.3-2.2
						C-347.8,19.1-347.9,18.1-347.9,17.1L-347.9,17.1z"/>
					<path id="Shape_366_" class="st18" d="M-337.1,18.7c0-0.8,0.1-1.5,0.4-2.2c0.2-0.6,0.6-1.2,1-1.7c0.9-0.9,2.1-1.4,3.3-1.4
						c0.6,0,1.2,0.1,1.8,0.4c0.6,0.2,1.1,0.6,1.5,1c0.5,0.5,0.8,1,1,1.6c0.5,1.4,0.5,3,0,4.4c-0.2,0.6-0.6,1.2-1,1.6
						c-0.4,0.4-0.9,0.8-1.5,1c-0.6,0.2-1.2,0.3-1.8,0.3c-0.6,0-1.2-0.1-1.8-0.3c-0.6-0.2-1.1-0.6-1.5-1c-0.5-0.5-0.8-1-1-1.6
						C-337,20.2-337.1,19.5-337.1,18.7L-337.1,18.7z M-334.7,18.7c0,0.8,0.2,1.7,0.6,2.4c0.4,0.6,1,0.9,1.7,0.9
						c0.7,0,1.4-0.3,1.8-0.9c0.5-0.7,0.7-1.6,0.6-2.4c0-0.9-0.2-1.7-0.6-2.4c-0.4-0.6-1.1-0.9-1.8-0.9c-0.7,0-1.3,0.3-1.7,0.9
						C-334.5,17-334.7,17.8-334.7,18.7L-334.7,18.7z"/>
					<path id="Shape_365_" class="st18" d="M-326,13.7h1.9l0.2,1.8h0.1c0.3-0.6,0.7-1.1,1.3-1.5c0.8-0.6,1.8-0.7,2.7-0.3l-0.4,2
						c-0.2,0-0.3-0.1-0.5-0.1c-0.2,0-0.4,0-0.5,0c-0.5,0-0.9,0.2-1.2,0.4c-0.5,0.4-0.9,1-1.1,1.6v6.1h-2.3V13.7L-326,13.7z"/>
					<path id="Shape_364_" class="st18" d="M-320,18.7c0-0.7,0.1-1.5,0.4-2.2c0.2-0.6,0.6-1.2,1-1.6c0.4-0.4,0.9-0.8,1.5-1
						c0.5-0.2,1.1-0.4,1.7-0.4c0.6,0,1.2,0.1,1.8,0.3c0.5,0.2,1,0.6,1.3,1c0.4,0.4,0.6,1,0.8,1.5c0.2,0.6,0.3,1.3,0.3,1.9
						c0,0.4,0,0.7-0.1,1.1h-6.4c0.1,0.8,0.4,1.5,0.9,2.1c0.5,0.5,1.3,0.8,2,0.7c0.4,0,0.8-0.1,1.2-0.2c0.4-0.1,0.8-0.3,1.1-0.5
						l0.8,1.5c-0.5,0.3-1,0.6-1.6,0.8c-0.6,0.2-1.2,0.3-1.8,0.3c-0.7,0-1.3-0.1-1.9-0.4c-0.6-0.2-1.1-0.6-1.6-1
						c-0.5-0.5-0.8-1-1.1-1.6C-319.9,20.2-320.1,19.5-320,18.7L-320,18.7z M-313.3,17.8c0-0.7-0.1-1.3-0.5-1.9
						c-0.4-0.5-0.9-0.7-1.5-0.7c-0.6,0-1.2,0.2-1.6,0.6c-0.5,0.5-0.8,1.2-0.8,1.9L-313.3,17.8L-313.3,17.8z"/>
					<path id="Shape_363_" class="st19" d="M-302.3,23.9c-0.8,0-1.5-0.2-2.2-0.5c-0.7-0.3-1.3-0.8-1.8-1.4c-0.5-0.7-0.9-1.4-1.1-2.2
						c-0.3-0.9-0.4-1.9-0.4-2.9c0-1,0.1-1.9,0.4-2.9c0.2-0.8,0.6-1.5,1.1-2.2c0.5-0.6,1.1-1.1,1.8-1.4c0.7-0.3,1.4-0.5,2.2-0.5
						c0.8,0,1.5,0.2,2.2,0.5c0.7,0.3,1.3,0.8,1.8,1.4c0.5,0.7,0.9,1.4,1.1,2.2c0.3,0.9,0.4,1.9,0.4,2.9c0,1-0.1,1.9-0.4,2.9
						c-0.2,0.8-0.6,1.5-1.1,2.2c-0.5,0.6-1.1,1.1-1.8,1.4C-300.8,23.8-301.5,23.9-302.3,23.9L-302.3,23.9z M-302.3,23.1
						c0.6,0,1.3-0.1,1.9-0.4c0.6-0.3,1.1-0.7,1.4-1.2c0.4-0.6,0.7-1.2,0.9-1.9c0.2-0.8,0.3-1.7,0.3-2.5c0-0.8-0.1-1.7-0.3-2.5
						c-0.2-0.7-0.5-1.3-0.9-1.9c-0.4-0.5-0.9-0.9-1.4-1.2c-0.6-0.3-1.2-0.4-1.9-0.4c-1.3,0-2.5,0.6-3.3,1.6
						c-0.4,0.6-0.7,1.2-0.9,1.9c-0.2,0.8-0.3,1.7-0.3,2.5c0,0.9,0.1,1.7,0.3,2.5c0.2,0.7,0.5,1.3,0.9,1.9c0.4,0.5,0.9,0.9,1.4,1.2
						C-303.6,22.9-303,23.1-302.3,23.1L-302.3,23.1z"/>
					<path id="Shape_362_" class="st3" d="M-293.5,21.3c0.5,0.6,1.1,1,1.8,1.3c0.7,0.3,1.4,0.5,2.2,0.5c0.9,0,1.7-0.2,2.4-0.7
						c0.6-0.5,0.9-1.2,0.9-1.9c0-0.4-0.1-0.7-0.2-1.1c-0.1-0.3-0.3-0.5-0.5-0.7c-0.2-0.2-0.5-0.4-0.8-0.5c-0.3-0.2-0.6-0.3-0.9-0.4
						l-2-0.9c-0.3-0.1-0.6-0.3-0.9-0.4c-0.3-0.2-0.6-0.4-0.9-0.7c-0.3-0.3-0.5-0.6-0.7-0.9c-0.2-0.4-0.3-0.8-0.3-1.3
						c0-0.5,0.1-0.9,0.3-1.3c0.2-0.4,0.5-0.8,0.8-1c0.4-0.3,0.8-0.6,1.2-0.7c0.5-0.2,1-0.2,1.6-0.2c0.8,0,1.5,0.1,2.2,0.5
						c0.6,0.3,1.1,0.7,1.6,1.1l-0.5,0.6c-0.4-0.4-0.9-0.8-1.4-1c-0.6-0.3-1.2-0.4-1.8-0.4c-0.8,0-1.5,0.2-2.2,0.7
						c-0.5,0.4-0.8,1.1-0.8,1.8c0,0.4,0.1,0.7,0.2,1c0.1,0.3,0.3,0.5,0.6,0.7c0.2,0.2,0.5,0.4,0.7,0.5c0.3,0.1,0.5,0.3,0.8,0.4
						l2,0.9c0.4,0.2,0.7,0.3,1.1,0.5c0.3,0.2,0.6,0.4,0.9,0.7c0.3,0.3,0.5,0.6,0.6,1c0.2,0.4,0.2,0.9,0.2,1.3c0,0.5-0.1,1-0.3,1.4
						c-0.2,0.4-0.5,0.8-0.9,1.1c-0.4,0.3-0.9,0.6-1.4,0.8c-0.6,0.2-1.2,0.3-1.8,0.3c-0.9,0-1.8-0.2-2.6-0.6
						c-0.7-0.4-1.4-0.8-1.9-1.5L-293.5,21.3z"/>
				</g>
			</g>
		</g>
		<path id="Line_5_" class="st20" d="M-162.1,196.6v-9.8"/>
	</g>
</g>
</svg>
