<?xml version="1.0" encoding="utf-8"?>
<!-- Generator: Adobe Illustrator 20.0.0, SVG Export Plug-In . SVG Version: 6.00 Build 0)  -->
<svg version="1.1" xmlns="http://www.w3.org/2000/svg" xmlns:xlink="http://www.w3.org/1999/xlink" x="0px" y="0px"
	 viewBox="0 0 338 217.6" style="enable-background:new 0 0 338 217.6;" xml:space="preserve">
<style type="text/css">
	.st0{filter:url(#filter-2);}
	.st1{fill:#FFFFFF;}
	.st2{fill:url(#);fill-opacity:5.000000e-02;}
	.st3{fill:#63B4E1;}
	.st4{fill:#939598;}
	.st5{fill:#FCD9D3;}
	.st6{fill:#F15E6C;}
	.st7{fill:#FDE0D2;}
	.st8{fill:#F37456;}
	.st9{fill:#DBEFE6;}
	.st10{fill:#4ABB8A;}
	.st11{fill:#F04D5C;}
	.st12{fill:#52A3D9;}
	.st13{fill:#646464;}
	.st14{fill:#449FD8;}
	.st15{fill:#9B9B9B;}
	.st16{fill:#D8E5F5;}
	.st17{fill:#51A3D9;}
	.st18{fill:#010101;}
	.st19{fill:#F3757E;}
	.st20{fill:none;stroke:#646464;stroke-width:0.5;stroke-linecap:square;}
	.st21{fill:none;stroke:#979797;stroke-linecap:square;stroke-dasharray:6;}
</style>
<g id="Layer_1">
</g>
<g id="Layer_2">
	<g id="Group-10_1_">
		<g id="Group-7_1_" transform="translate(0.000000, 0.776224)">
			<rect id="Rectangle_3_" x="10" y="40.8" class="st1" width="316.3" height="146.5"/>
			<g id="Traditional-Distro-12_1_">
				<g id="Layer_12_3_">
					<polygon id="Shape_361_" class="st3" points="45.8,11.3 41.5,11.3 41.5,10.5 51,10.5 51,11.3 46.7,11.3 46.7,23.8 45.8,23.8 
						45.8,11.3 					"/>
					<path id="Shape_360_" class="st3" d="M53.1,14.1h0.8l0.1,1.8h0.1c0.3-0.6,0.7-1.1,1.2-1.5c0.4-0.4,1-0.6,1.6-0.6
						c0.2,0,0.3,0,0.5,0c0.2,0,0.3,0.1,0.5,0.2l-0.2,0.8c-0.1-0.1-0.3-0.1-0.4-0.1c-0.2,0-0.3,0-0.5,0c-0.5,0-1,0.2-1.4,0.6
						c-0.6,0.5-1,1.2-1.3,1.9v6.7h-0.9L53.1,14.1L53.1,14.1z"/>
					<path id="Shape_359_" class="st3" d="M59.2,21.4c0-1,0.6-2,1.5-2.5c1-0.6,2.6-1,4.8-1.2c0-0.4,0-0.7-0.1-1.1
						c-0.1-0.3-0.2-0.7-0.3-1c-0.2-0.3-0.4-0.5-0.7-0.7c-0.4-0.2-0.8-0.3-1.2-0.3c-0.6,0-1.2,0.1-1.8,0.4c-0.5,0.2-0.9,0.5-1.3,0.8
						l-0.4-0.7c0.2-0.1,0.4-0.3,0.6-0.4c0.3-0.2,0.5-0.3,0.8-0.4c0.3-0.1,0.7-0.2,1-0.3c0.4-0.1,0.8-0.1,1.1-0.1
						c0.5,0,1,0.1,1.5,0.3c0.4,0.2,0.7,0.5,1,0.8c0.3,0.4,0.4,0.8,0.5,1.2c0.1,0.5,0.2,1,0.2,1.5v6.2h-0.7l-0.1-1.3h0
						c-0.5,0.4-1,0.7-1.6,1c-0.6,0.3-1.2,0.4-1.8,0.4c-0.4,0-0.7-0.1-1.1-0.2c-0.3-0.1-0.6-0.3-0.9-0.5c-0.3-0.2-0.5-0.5-0.6-0.8
						C59.3,22.2,59.2,21.8,59.2,21.4L59.2,21.4z M60.2,21.4c-0.1,0.6,0.2,1.1,0.6,1.5c0.4,0.3,0.9,0.5,1.4,0.4
						c0.6,0,1.1-0.1,1.6-0.4c0.6-0.3,1.2-0.7,1.7-1.2v-3.3c-0.9,0.1-1.7,0.2-2.5,0.4c-0.6,0.1-1.1,0.4-1.7,0.6
						c-0.4,0.2-0.7,0.5-0.9,0.8C60.2,20.6,60.2,21,60.2,21.4L60.2,21.4z"/>
					<path id="Shape_358_" class="st3" d="M69.8,19c0-0.7,0.1-1.4,0.3-2.1c0.2-0.6,0.5-1.2,0.9-1.6c0.4-0.4,0.9-0.8,1.4-1
						c0.5-0.2,1.1-0.4,1.7-0.4c0.5,0,1.1,0.1,1.6,0.3c0.5,0.2,1,0.5,1.4,0.9l0-1.8v-4h0.9v14.6h-0.8l-0.1-1.3H77
						c-0.4,0.4-0.9,0.8-1.4,1c-0.5,0.3-1.2,0.5-1.8,0.4c-1.1,0-2.2-0.4-3-1.3C70.1,21.9,69.8,20.6,69.8,19L69.8,19z M70.7,19
						c0,0.6,0.1,1.2,0.2,1.7c0.1,0.5,0.3,0.9,0.6,1.4c0.3,0.4,0.6,0.7,1,0.9c0.4,0.2,0.9,0.3,1.4,0.3c0.5,0,1.1-0.2,1.6-0.4
						c0.6-0.3,1.1-0.7,1.5-1.2v-5.8c-0.4-0.4-0.9-0.7-1.5-1c-0.4-0.2-0.9-0.3-1.4-0.3c-0.5,0-0.9,0.1-1.4,0.3
						c-0.4,0.2-0.8,0.5-1.1,0.9c-0.3,0.4-0.6,0.9-0.7,1.4C70.8,17.8,70.7,18.4,70.7,19L70.7,19z"/>
					<path id="Shape_357_" class="st3" d="M82.8,11.7c-0.2,0-0.4-0.1-0.6-0.2c-0.2-0.1-0.2-0.4-0.2-0.6c0-0.2,0.1-0.4,0.2-0.6
						c0.3-0.3,0.8-0.3,1.2,0c0.2,0.2,0.2,0.4,0.2,0.6c0,0.2-0.1,0.4-0.2,0.6C83.2,11.6,83,11.7,82.8,11.7L82.8,11.7z M82.3,14.1h0.9
						v9.8h-0.9V14.1L82.3,14.1z"/>
					<path id="Shape_356_" class="st3" d="M87.8,14.9h-1.5v-0.7l1.5-0.1l0.1-2.8h0.8v2.8h2.8v0.8h-2.8v6.4c0,0.3,0,0.6,0.1,0.8
						c0,0.2,0.1,0.5,0.3,0.7c0.1,0.2,0.3,0.3,0.5,0.4c0.3,0.1,0.5,0.2,0.8,0.2c0.2,0,0.4,0,0.6-0.1c0.2-0.1,0.4-0.1,0.6-0.2l0.2,0.7
						c-0.3,0.1-0.6,0.2-0.9,0.3c-0.2,0.1-0.5,0.1-0.7,0.1c-0.4,0-0.8-0.1-1.2-0.2c-0.3-0.1-0.6-0.3-0.8-0.6
						c-0.2-0.3-0.3-0.6-0.4-0.9c-0.1-0.4-0.1-0.8-0.1-1.2L87.8,14.9L87.8,14.9z"/>
					<path id="Shape_355_" class="st3" d="M95.1,11.7c-0.2,0-0.4-0.1-0.6-0.2c-0.2-0.1-0.2-0.4-0.2-0.6c0-0.2,0.1-0.4,0.2-0.6
						c0.3-0.3,0.8-0.3,1.2,0c0.2,0.2,0.2,0.4,0.2,0.6c0,0.2-0.1,0.4-0.2,0.6C95.5,11.7,95.3,11.7,95.1,11.7L95.1,11.7z M94.6,14.1
						h0.9v9.8h-0.9V14.1L94.6,14.1z"/>
					<path id="Shape_354_" class="st3" d="M99.1,19c0-0.7,0.1-1.5,0.4-2.2c0.2-0.6,0.5-1.1,1-1.6c0.8-0.9,1.9-1.3,3.1-1.3
						c0.6,0,1.2,0.1,1.7,0.3c0.5,0.2,1,0.6,1.4,1c0.4,0.5,0.7,1,1,1.6c0.2,0.7,0.4,1.4,0.4,2.2c0,0.7-0.1,1.5-0.4,2.2
						c-0.2,0.6-0.5,1.1-1,1.6c-0.4,0.4-0.9,0.8-1.4,1c-0.5,0.2-1.1,0.3-1.7,0.3c-1.2,0-2.3-0.5-3.1-1.3c-0.4-0.5-0.7-1-1-1.6
						C99.2,20.5,99.1,19.7,99.1,19L99.1,19z M100,19c0,0.6,0.1,1.2,0.3,1.7c0.2,0.5,0.4,1,0.7,1.4c0.3,0.4,0.7,0.7,1.1,0.9
						c0.4,0.2,0.9,0.3,1.4,0.3c0.5,0,0.9-0.1,1.4-0.3c0.4-0.2,0.8-0.5,1.1-0.9c0.3-0.4,0.6-0.9,0.7-1.4c0.2-0.6,0.3-1.2,0.3-1.7
						c0-0.6-0.1-1.2-0.3-1.7c-0.2-0.5-0.4-1-0.7-1.4c-0.3-0.4-0.7-0.7-1.1-0.9c-0.4-0.2-0.9-0.3-1.4-0.3c-0.5,0-0.9,0.1-1.4,0.3
						c-0.4,0.2-0.8,0.5-1.1,0.9c-0.3,0.4-0.6,0.9-0.7,1.4C100.1,17.8,100,18.4,100,19L100,19z"/>
					<path id="Shape_353_" class="st3" d="M111.4,14.1h0.8l0.1,1.5h0.1c0.5-0.5,1-0.9,1.5-1.3c0.5-0.3,1.2-0.5,1.8-0.5
						c0.9-0.1,1.7,0.3,2.2,0.9c0.5,0.6,0.7,1.6,0.7,2.8v6.3h-0.9v-6.1c0.1-0.8-0.1-1.6-0.5-2.3c-0.4-0.5-1.1-0.8-1.7-0.7
						c-0.6,0-1.1,0.1-1.6,0.4c-0.6,0.4-1.1,0.9-1.6,1.4v7.4h-0.9L111.4,14.1L111.4,14.1z"/>
					<path id="Shape_352_" class="st3" d="M122.3,21.4c0-1.1,0.6-2,1.5-2.5c1-0.6,2.6-1,4.8-1.2c0-0.4,0-0.7-0.1-1.1
						c-0.1-0.3-0.2-0.7-0.3-1c-0.2-0.3-0.4-0.5-0.7-0.7c-0.4-0.2-0.8-0.3-1.2-0.3c-0.6,0-1.2,0.1-1.8,0.4c-0.5,0.2-0.9,0.5-1.3,0.8
						l-0.4-0.7c0.2-0.1,0.4-0.3,0.6-0.4c0.3-0.2,0.5-0.3,0.8-0.4c0.3-0.1,0.7-0.2,1-0.3c0.4-0.1,0.8-0.1,1.1-0.1
						c0.5,0,1,0.1,1.5,0.3c0.4,0.2,0.7,0.5,1,0.8c0.3,0.4,0.4,0.8,0.5,1.2c0.1,0.5,0.2,1,0.2,1.5v6.3h-0.8l-0.1-1.3h0
						c-0.5,0.4-1,0.7-1.6,1c-0.6,0.3-1.2,0.4-1.8,0.4c-0.4,0-0.7,0-1.1-0.1c-0.3-0.1-0.6-0.3-0.9-0.5c-0.3-0.2-0.5-0.5-0.6-0.8
						C122.4,22.2,122.3,21.8,122.3,21.4L122.3,21.4z M123.3,21.4c-0.1,0.6,0.2,1.1,0.6,1.5c0.4,0.3,0.9,0.5,1.4,0.4
						c0.6,0,1.1-0.1,1.6-0.4c0.6-0.3,1.2-0.7,1.7-1.2v-3.3c-0.9,0.1-1.7,0.2-2.5,0.4c-0.6,0.1-1.1,0.3-1.7,0.6
						c-0.4,0.2-0.7,0.5-0.9,0.8C123.4,20.6,123.3,21,123.3,21.4L123.3,21.4z"/>
					<path id="Shape_351_" class="st3" d="M133.7,9.2h0.9v13.4c0,0.2,0,0.3,0.1,0.5c0.1,0.1,0.2,0.2,0.3,0.2h0.1c0.1,0,0.2,0,0.2,0
						l0.2,0.7l-0.3,0.1c-0.1,0-0.2,0-0.4,0c-0.8,0-1.2-0.5-1.2-1.5L133.7,9.2L133.7,9.2z"/>
					<path id="Shape_350_" class="st3" d="M143.9,10.5h3.1c0.9,0,1.8,0.1,2.7,0.5c0.7,0.3,1.4,0.7,1.9,1.3c0.5,0.6,0.9,1.3,1.1,2.1
						c0.3,0.9,0.4,1.8,0.4,2.7c0,0.9-0.1,1.9-0.4,2.8c-0.2,0.8-0.6,1.5-1.1,2.1c-0.5,0.6-1.2,1.1-1.9,1.4c-0.9,0.3-1.8,0.5-2.7,0.5
						h-3.1L143.9,10.5L143.9,10.5z M147,23.1c0.8,0,1.6-0.1,2.4-0.4c0.6-0.3,1.2-0.7,1.6-1.2c0.4-0.6,0.8-1.2,0.9-1.9
						c0.2-0.8,0.3-1.6,0.3-2.4c0-0.8-0.1-1.6-0.3-2.4c-0.2-0.7-0.5-1.3-0.9-1.9c-0.4-0.5-1-0.9-1.6-1.2c-0.7-0.3-1.5-0.5-2.4-0.4
						h-2.1V23L147,23.1L147,23.1z"/>
					<path id="Shape_349_" class="st3" d="M157.3,11.7c-0.2,0-0.4-0.1-0.6-0.2c-0.2-0.1-0.2-0.4-0.2-0.6c0-0.2,0.1-0.4,0.2-0.6
						c0.3-0.3,0.8-0.3,1.2,0c0.2,0.2,0.2,0.4,0.2,0.6c0,0.2-0.1,0.4-0.2,0.6C157.7,11.7,157.5,11.7,157.3,11.7L157.3,11.7z
						 M156.8,14.1h0.9v9.8h-0.9V14.1L156.8,14.1z"/>
					<path id="Shape_348_" class="st3" d="M161.4,22.1c0.4,0.3,0.9,0.6,1.3,0.9c0.6,0.3,1.2,0.4,1.8,0.4c0.6,0.1,1.3-0.2,1.8-0.6
						c0.4-0.4,0.6-0.8,0.6-1.4c0-0.3-0.1-0.6-0.2-0.8c-0.1-0.2-0.3-0.4-0.6-0.6c-0.2-0.2-0.5-0.3-0.8-0.4c-0.3-0.1-0.6-0.2-0.8-0.3
						c-0.4-0.1-0.7-0.3-1.1-0.4c-0.4-0.1-0.7-0.3-1-0.5c-0.3-0.2-0.5-0.5-0.7-0.8c-0.2-0.3-0.3-0.7-0.3-1.1c0-0.3,0.1-0.7,0.2-1
						c0.1-0.3,0.3-0.6,0.6-0.8c0.3-0.2,0.6-0.4,1-0.5c0.4-0.1,0.9-0.2,1.4-0.2c0.5,0,1,0.1,1.5,0.3c0.5,0.2,0.9,0.4,1.3,0.7
						l-0.5,0.6c-0.3-0.2-0.7-0.5-1-0.6c-0.4-0.2-0.9-0.3-1.3-0.3c-0.3,0-0.7,0-1,0.2c-0.3,0.1-0.5,0.2-0.7,0.4
						c-0.2,0.2-0.3,0.4-0.4,0.6c-0.1,0.2-0.1,0.4-0.1,0.7c0,0.3,0.1,0.5,0.2,0.7c0.1,0.2,0.3,0.4,0.5,0.5c0.2,0.2,0.5,0.3,0.7,0.4
						c0.3,0.1,0.6,0.2,0.8,0.3l1.1,0.4c0.4,0.2,0.7,0.3,1,0.6c0.3,0.2,0.6,0.5,0.7,0.8c0.2,0.4,0.3,0.8,0.3,1.2c0,0.4-0.1,0.7-0.2,1
						c-0.1,0.3-0.4,0.6-0.6,0.9c-0.3,0.3-0.7,0.5-1,0.6c-0.5,0.2-0.9,0.2-1.4,0.2c-0.7,0-1.4-0.1-2-0.4c-0.6-0.2-1.1-0.6-1.6-0.9
						L161.4,22.1z"/>
					<path id="Shape_347_" class="st3" d="M171.2,14.9h-1.5v-0.7l1.5-0.1l0.1-2.8h0.8v2.8h2.8v0.8h-2.8v6.4c0,0.3,0,0.6,0.1,0.8
						c0,0.2,0.1,0.5,0.3,0.7c0.1,0.2,0.3,0.3,0.5,0.4c0.3,0.1,0.5,0.2,0.8,0.2c0.2,0,0.4,0,0.6-0.1c0.2-0.1,0.4-0.1,0.6-0.2l0.2,0.7
						c-0.3,0.1-0.6,0.2-0.9,0.3c-0.2,0.1-0.5,0.1-0.7,0.1c-0.4,0-0.8-0.1-1.2-0.2c-0.3-0.1-0.6-0.3-0.8-0.6
						c-0.2-0.3-0.3-0.6-0.4-0.9c-0.1-0.4-0.1-0.8-0.1-1.2L171.2,14.9L171.2,14.9z"/>
					<path id="Shape_346_" class="st3" d="M178,14.1h0.8l0.1,1.8h0.1c0.3-0.6,0.7-1.1,1.2-1.5c0.4-0.4,1-0.6,1.6-0.6
						c0.2,0,0.3,0,0.5,0c0.2,0,0.3,0.1,0.5,0.2l-0.2,0.8c-0.1-0.1-0.3-0.1-0.4-0.1c-0.2,0-0.3,0-0.5,0c-0.5,0-1,0.2-1.4,0.6
						c-0.6,0.5-1.1,1.2-1.3,1.9v6.6H178V14.1L178,14.1z"/>
					<path id="Shape_345_" class="st3" d="M184,19c0-0.7,0.1-1.5,0.4-2.2c0.2-0.6,0.5-1.1,1-1.6c0.8-0.9,1.9-1.3,3.1-1.3
						c0.6,0,1.1,0.1,1.7,0.3c0.5,0.2,1,0.6,1.4,1c0.4,0.5,0.7,1,1,1.6c0.2,0.7,0.4,1.4,0.4,2.2c0,0.7-0.1,1.5-0.4,2.2
						c-0.2,0.6-0.5,1.1-1,1.6c-0.4,0.4-0.9,0.8-1.4,1c-0.5,0.2-1.1,0.3-1.7,0.3c-1.2,0-2.3-0.5-3.1-1.3c-0.4-0.5-0.7-1-1-1.6
						C184.1,20.5,184,19.7,184,19L184,19z M185,19c0,0.6,0.1,1.2,0.3,1.7c0.2,0.5,0.4,1,0.7,1.4c0.3,0.4,0.7,0.7,1.1,0.9
						c0.4,0.2,0.9,0.3,1.4,0.3c0.5,0,0.9-0.1,1.4-0.3c0.4-0.2,0.8-0.5,1.1-0.9c0.3-0.4,0.6-0.9,0.7-1.4c0.2-0.6,0.3-1.2,0.3-1.7
						c0-0.6-0.1-1.2-0.3-1.7c-0.2-0.5-0.4-1-0.7-1.4c-0.3-0.4-0.7-0.7-1.1-0.9c-0.4-0.2-0.9-0.3-1.4-0.3c-0.5,0-0.9,0.1-1.4,0.3
						c-0.4,0.2-0.8,0.5-1.1,0.9c-0.3,0.4-0.6,0.9-0.7,1.4C185,17.8,185,18.4,185,19L185,19z"/>
					<path id="Shape_344_" class="st4" d="M318.5,186.3H18.3c-4.3,0-7.8-3.5-7.8-7.8V49c0-4.3,3.5-7.8,7.8-7.8h300.2
						c4.3,0,7.8,3.5,7.8,7.8v129.5C326.3,182.8,322.8,186.3,318.5,186.3L318.5,186.3z M18.3,42.2c-3.8,0-6.8,3-6.8,6.8v129.5
						c0,3.8,3.1,6.8,6.8,6.8h300.2c3.8,0,6.8-3,6.8-6.8V49c0-3.8-3.1-6.8-6.8-6.8H18.3L18.3,42.2z"/>
					<path id="Shape_343_" class="st5" d="M18.6,52.3c0-1.7,1.4-3,3.1-3h89.7c1.7,0,3.1,1.4,3.1,3v121.9c0,1.7-1.4,3-3.1,3H21.6
						c-1.7,0-3.1-1.4-3.1-3L18.6,52.3L18.6,52.3z"/>
					<path id="Shape_342_" class="st6" d="M111.3,177.8H21.6c-0.9,0-1.9-0.4-2.5-1c-0.7-0.7-1-1.6-1-2.5V52.3c0-2,1.6-3.5,3.6-3.5
						h89.7c2,0,3.6,1.6,3.6,3.5v121.9c0,0.9-0.4,1.9-1,2.5C113.2,177.4,112.2,177.8,111.3,177.8L111.3,177.8z M21.6,49.8
						c-1.4,0-2.5,1.1-2.5,2.5v121.9c0,1.4,1.1,2.5,2.5,2.5h89.7c1.4,0,2.5-1.1,2.5-2.5V52.3c0-1.4-1.1-2.5-2.5-2.5H21.6L21.6,49.8z"
						/>
					<path id="Shape_341_" class="st7" d="M120.5,52.3c0-1.7,1.4-3,3.1-3h89.7c1.7,0,3.1,1.4,3.1,3v121.9c0,1.7-1.4,3-3.1,3h-89.7
						c-1.7,0-3.1-1.4-3.1-3L120.5,52.3L120.5,52.3z"/>
					<path id="Shape_340_" class="st8" d="M213.2,177.8h-89.7c-0.9,0-1.9-0.4-2.5-1c-0.7-0.7-1-1.6-1-2.5V52.3c0-2,1.6-3.5,3.6-3.5
						h89.7c2,0,3.6,1.6,3.6,3.5v121.9c0,0.9-0.4,1.9-1,2.5S214.2,177.8,213.2,177.8L213.2,177.8z M123.5,49.8
						c-1.4,0-2.5,1.1-2.5,2.5v121.9c0,1.4,1.1,2.5,2.5,2.5h89.7c1.4,0,2.5-1.1,2.5-2.5V52.3c0-1.4-1.1-2.5-2.5-2.5H123.5L123.5,49.8
						z"/>
					<path id="Shape_339_" class="st9" d="M222.4,96.3c0-1.7,1.4-3.1,3.1-3.1h89.7c1.7,0,3.1,1.4,3.1,3.1v34.5
						c0,1.7-1.4,3.1-3.1,3.1h-89.7c-1.7,0-3.1-1.4-3.1-3.1V96.3L222.4,96.3z"/>
					<path id="Shape_338_" class="st10" d="M315.1,134.4h-89.7c-2,0-3.6-1.6-3.6-3.6V96.3c0-2,1.6-3.6,3.6-3.6h89.7
						c2,0,3.6,1.6,3.6,3.6v34.5c0,0.9-0.4,1.9-1,2.5S316.1,134.4,315.1,134.4L315.1,134.4z M225.4,93.8c-1.4,0-2.5,1.1-2.5,2.5v34.5
						c0,1.4,1.1,2.5,2.5,2.5h89.7c1.4,0,2.5-1.1,2.5-2.5V96.3c0-1.4-1.1-2.5-2.5-2.5L225.4,93.8L225.4,93.8z"/>
					<path id="Shape_337_" class="st9" d="M222.4,52.9c0-1.7,1.4-3.1,3.1-3.1h89.7c1.7,0,3.1,1.4,3.1,3.1v34.5
						c0,1.7-1.4,3.1-3.1,3.1h-89.7c-1.7,0-3.1-1.4-3.1-3.1V52.9L222.4,52.9z"/>
					<path id="Shape_336_" class="st10" d="M315.1,91h-89.7c-2,0-3.6-1.6-3.6-3.6V52.9c0-2,1.6-3.6,3.6-3.6h89.7
						c2,0,3.6,1.6,3.6,3.6v34.5C318.7,89.4,317.1,91,315.1,91L315.1,91z M225.4,50.4c-1.4,0-2.5,1.1-2.5,2.5v34.5
						c0,0.7,0.3,1.3,0.7,1.8c0.5,0.5,1.1,0.7,1.8,0.7h89.7c0.7,0,1.3-0.3,1.8-0.7s0.7-1.1,0.7-1.8V52.9c0-1.4-1.1-2.5-2.5-2.5H225.4
						L225.4,50.4z"/>
					<path id="Shape_335_" class="st9" d="M222.4,139.7c0-1.7,1.4-3.1,3.1-3.1h89.7c1.7,0,3.1,1.4,3.1,3.1v34.5
						c0,1.7-1.4,3.1-3.1,3.1h-89.7c-1.7,0-3.1-1.4-3.1-3.1V139.7L222.4,139.7z"/>
					<path id="Shape_334_" class="st10" d="M315.1,177.8h-89.7c-2,0-3.6-1.6-3.6-3.6v-34.5c0-2,1.6-3.6,3.6-3.6h89.7
						c2,0,3.6,1.6,3.6,3.6v34.5C318.7,176.2,317.1,177.8,315.1,177.8L315.1,177.8z M225.4,137.2c-1.4,0-2.5,1.1-2.5,2.5v34.5
						c0,1.4,1.1,2.5,2.5,2.5h89.7c1.4,0,2.5-1.1,2.5-2.5v-34.5c0-1.4-1.1-2.5-2.5-2.5H225.4L225.4,137.2z"/>
					<polygon id="Shape_333_" class="st11" points="36,70.1 37,70.1 37,76 37.1,76 40.3,72.9 41.4,72.9 39.1,75.2 41.8,78.8 
						40.6,78.8 38.4,75.8 37,77.2 37,78.8 36,78.8 					"/>
					<path id="Shape_332_" class="st11" d="M42.9,75.8c0-0.8,0.3-1.6,0.8-2.2c0.6-0.6,1.4-0.9,2.2-0.9c1.7,0,2.7,1.1,2.7,2.8
						c0,0.2,0,0.4,0,0.6h-4.7c0.1,1.3,1.1,2,2.3,2c0.6,0,1.3-0.2,1.8-0.6l0.4,0.7c-0.7,0.5-1.5,0.7-2.3,0.7
						C44.3,78.9,42.9,77.8,42.9,75.8L42.9,75.8z M43.9,75.3h3.8c-0.1-1.2-0.8-1.8-1.8-1.8C44.9,73.5,44.1,74.3,43.9,75.3L43.9,75.3z
						"/>
					<path id="Shape_329_" class="st11" d="M65.9,75.8c0-0.8,0.3-1.6,0.8-2.2c0.6-0.6,1.4-0.9,2.2-0.9c1.7,0,2.7,1.1,2.7,2.8
						c0,0.2,0,0.4,0,0.6h-4.7c0.1,1.3,1.1,2,2.3,2c0.6,0,1.3-0.2,1.8-0.6l0.4,0.7c-0.7,0.5-1.5,0.7-2.3,0.7
						C67.3,78.9,65.9,77.8,65.9,75.8L65.9,75.8z M66.9,75.3h3.8c-0.1-1.2-0.8-1.8-1.8-1.8C67.9,73.5,67.1,74.3,66.9,75.3L66.9,75.3z
						"/>
					<path id="Shape_331_" class="st11" d="M51.2,72.9H52l0.1,1.4h0c0.6-0.9,1.5-1.5,2.6-1.5c0.4,0,0.8,0.1,1.2,0.2l-0.2,0.9
						c-0.3-0.1-0.7-0.2-1.1-0.2c-0.9,0-1.8,0.5-2.4,1.7v3.5h-1L51.2,72.9L51.2,72.9z"/>
					<path id="Shape_330_" class="st11" d="M57.9,72.9h0.8l0.1,1h0c0.6-0.7,1.3-1.2,2.2-1.2c1.4,0,2.1,0.8,2.1,2.4v3.7h-1v-3.5
						c0-1.1-0.4-1.7-1.4-1.7c-0.7,0-1.2,0.4-1.9,1.1v4.1h-1L57.9,72.9L57.9,72.9z"/>
					<path id="Shape_328_" class="st11" d="M74.5,76.8v-5.9h-2v-0.8h3v6.8c0,0.9,0.5,1.2,1.2,1.2c0.4,0,0.8-0.1,1.1-0.3l0.3,0.7
						c-0.5,0.2-1,0.4-1.6,0.4C75.1,78.9,74.5,78.2,74.5,76.8L74.5,76.8z"/>
					<path id="Shape_327_" class="st11" d="M35.6,97.3l0.5-0.7c0.7,0.5,1.7,0.8,2.6,0.8c1,0,1.5-0.4,1.5-0.9c0-0.5-0.2-0.8-1.9-1.1
						c-1.5-0.3-2.3-0.8-2.3-1.7c0-0.9,0.8-1.7,2.5-1.7c0.9,0,1.7,0.3,2.4,0.8l-0.5,0.6c-0.6-0.4-1.3-0.6-2-0.6c-1,0-1.4,0.4-1.4,0.9
						c0,0.5,0.5,0.7,1.7,1c2,0.4,2.5,0.9,2.5,1.8s-0.9,1.7-2.6,1.7C37.5,98.2,36.5,97.9,35.6,97.3L35.6,97.3z"/>
					<path id="Shape_326_" class="st11" d="M42.9,100.5l0.2-0.8c0.2,0.1,0.4,0.1,0.5,0.1c0.8,0,1.3-0.5,1.6-1.3l0.2-0.4l-2.8-5.9h1
						l1.5,3.3c0.2,0.5,0.5,1.1,0.7,1.7h0c0.2-0.6,0.4-1.2,0.6-1.7l1.3-3.3h1l-2.6,6.4c-0.4,1.2-1.2,2.1-2.5,2.1
						C43.4,100.6,43.2,100.6,42.9,100.5L42.9,100.5z"/>
					<path id="Shape_325_" class="st11" d="M50.3,97.3l0.5-0.7c0.7,0.5,1.7,0.8,2.6,0.8c1,0,1.5-0.4,1.5-0.9c0-0.5-0.2-0.8-1.9-1.1
						c-1.5-0.3-2.3-0.8-2.3-1.7c0-0.9,0.8-1.7,2.5-1.7c0.9,0,1.7,0.3,2.4,0.8L55,93.4c-0.6-0.4-1.3-0.6-2-0.6c-1,0-1.4,0.4-1.4,0.9
						c0,0.5,0.5,0.7,1.7,1c2,0.4,2.5,0.9,2.5,1.8s-0.9,1.7-2.6,1.7C52.2,98.2,51.2,97.9,50.3,97.3L50.3,97.3z"/>
					<path id="Shape_324_" class="st11" d="M59.3,95.8V93h-1.7v-0.8l1.7-0.1l0.1-1.9h0.8v1.9h2.9V93h-2.9v2.8c0,1.1,0.4,1.6,1.5,1.6
						c0.5,0,1-0.1,1.4-0.3l0.2,0.7c-0.6,0.2-1.2,0.4-1.9,0.4C59.8,98.2,59.3,97.2,59.3,95.8L59.3,95.8z"/>
					<path id="Shape_323_" class="st11" d="M64.9,95.1c0-0.8,0.3-1.6,0.8-2.2c0.6-0.6,1.4-0.9,2.2-0.9c1.7,0,2.7,1.1,2.7,2.8
						c0,0.2,0,0.4,0,0.6h-4.7c0.1,1.3,1.1,2,2.3,2c0.6,0,1.3-0.2,1.8-0.6l0.4,0.7c-0.7,0.5-1.5,0.7-2.3,0.7
						C66.3,98.2,64.9,97.1,64.9,95.1L64.9,95.1z M66,94.6h3.8c-0.1-1.2-0.8-1.8-1.8-1.8C67,92.8,66.1,93.6,66,94.6L66,94.6z"/>
					<path id="Shape_322_" class="st11" d="M72.1,92.2h0.8l0.1,0.8h0c0.2-0.6,0.8-0.9,1.4-0.9c0.6,0,1,0.3,1.1,1
						c0.3-0.6,0.7-1,1.4-1c0.8,0,1.3,0.6,1.3,1.8v4.2h-1v-4.2c0-0.7-0.2-1-0.6-1c-0.4,0-0.6,0.3-1,0.9v4.3h-0.9v-4.2
						c0-0.7-0.2-1-0.6-1c-0.4,0-0.7,0.3-1,0.9v4.3h-1V92.2L72.1,92.2z"/>
					<path id="Shape_321_" class="st11" d="M79.5,95.1c0-1.9,1.3-3.1,2.7-3.1c0.7,0,1.3,0.3,1.8,0.8h0l0-1.1v-2.3h1v8.7h-0.8
						l-0.1-0.8h0c-0.5,0.5-1.2,0.9-1.9,0.9C80.5,98.2,79.5,97.1,79.5,95.1L79.5,95.1z M84,96.5v-2.9c-0.4-0.4-1-0.7-1.6-0.7
						c-1,0-1.9,0.9-1.9,2.3s0.6,2.3,1.8,2.3C83,97.4,83.6,97,84,96.5L84,96.5z"/>
					<path id="Shape_320_" class="st11" d="M35.6,116.6l0.5-0.7c0.7,0.5,1.7,0.8,2.6,0.8c1,0,1.5-0.4,1.5-0.9s-0.2-0.8-1.9-1.1
						c-1.5-0.3-2.3-0.8-2.3-1.7s0.8-1.7,2.5-1.7c0.9,0,1.7,0.3,2.4,0.8l-0.5,0.6c-0.6-0.4-1.3-0.6-2-0.6c-1,0-1.4,0.4-1.4,0.9
						c0,0.5,0.5,0.7,1.7,1c2,0.4,2.5,0.9,2.5,1.8s-0.9,1.7-2.6,1.7C37.5,117.5,36.5,117.2,35.6,116.6L35.6,116.6z"/>
					<path id="Shape_319_" class="st11" d="M43,116.6l0.5-0.7c0.7,0.5,1.7,0.8,2.6,0.8c1,0,1.5-0.4,1.5-0.9s-0.2-0.8-1.9-1.1
						c-1.5-0.3-2.3-0.8-2.3-1.7s0.8-1.7,2.5-1.7c0.9,0,1.7,0.3,2.4,0.8l-0.5,0.6c-0.6-0.4-1.3-0.6-2-0.6c-1,0-1.4,0.4-1.4,0.9
						s0.5,0.7,1.7,1c2,0.4,2.5,0.9,2.5,1.8c0,0.9-0.9,1.7-2.6,1.7C44.8,117.5,43.8,117.2,43,116.6L43,116.6z"/>
					<path id="Shape_318_" class="st11" d="M50.6,108.7h1v2.4l-0.1,1.4h0c0.6-0.7,1.3-1.2,2.2-1.2c1.4,0,2.1,0.8,2.1,2.4v3.7h-1
						v-3.5c0-1.1-0.4-1.7-1.4-1.7c-0.7,0-1.2,0.4-1.9,1.1v4.1h-1V108.7L50.6,108.7z"/>
					<path id="Shape_317_" class="st11" d="M57.5,114.4c0-1.9,1.3-3.1,2.7-3.1c0.7,0,1.3,0.3,1.8,0.8h0l0-1.1v-2.3h1v8.7h-0.8
						l-0.1-0.8h0c-0.5,0.5-1.2,0.9-1.9,0.9C58.5,117.5,57.5,116.4,57.5,114.4L57.5,114.4z M62,115.8v-2.9c-0.4-0.4-1-0.7-1.6-0.7
						c-1,0-1.9,0.9-1.9,2.3c0,1.4,0.6,2.3,1.8,2.3C60.9,116.7,61.6,116.3,62,115.8L62,115.8z"/>
					<path id="Shape_316_" class="st11" d="M35.5,133.8c0-1.9,1.3-3.1,2.7-3.1c0.7,0,1.3,0.3,1.8,0.8h0l0-1.1V128h1v8.7h-0.8
						l-0.1-0.8h0c-0.5,0.5-1.2,0.9-1.9,0.9C36.5,136.8,35.5,135.7,35.5,133.8L35.5,133.8z M39.9,135.1v-2.9c-0.4-0.4-1-0.7-1.6-0.7
						c-1,0-1.9,0.9-1.9,2.3c0,1.4,0.6,2.3,1.8,2.3C38.9,136,39.5,135.6,39.9,135.1L39.9,135.1z"/>
					<path id="Shape_315_" class="st11" d="M42.8,133.8c0-2,1.4-3.1,2.9-3.1s2.9,1.1,2.9,3.1s-1.4,3.1-2.9,3.1
						S42.8,135.7,42.8,133.8L42.8,133.8z M47.6,133.8c0-1.4-0.8-2.3-1.9-2.3s-1.9,0.9-1.9,2.3c0,1.4,0.8,2.3,1.9,2.3
						S47.6,135.1,47.6,133.8L47.6,133.8z"/>
					<path id="Shape_314_" class="st11" d="M50.4,133.8c0-2,1.5-3.1,3.3-3.1c0.8,0,1.6,0.3,2.2,0.9l-0.5,0.6c-0.4-0.4-1-0.7-1.6-0.7
						c-0.6,0-1.2,0.2-1.7,0.6c-0.4,0.4-0.7,1-0.6,1.7c0,0.6,0.2,1.2,0.6,1.6c0.4,0.4,1,0.7,1.7,0.6c0.7,0,1.3-0.3,1.8-0.7l0.4,0.6
						c-0.6,0.6-1.5,0.9-2.4,0.9C51.8,136.8,50.4,135.7,50.4,133.8L50.4,133.8z"/>
					<polygon id="Shape_313_" class="st11" points="58.1,128 59.1,128 59.1,133.9 59.1,133.9 62.3,130.8 63.5,130.8 61.1,133.1 
						63.8,136.7 62.7,136.7 60.5,133.7 59.1,135.1 59.1,136.7 58.1,136.7 					"/>
					<path id="Shape_312_" class="st11" d="M64.9,133.7c0-0.8,0.3-1.6,0.8-2.2c0.6-0.6,1.4-0.9,2.2-0.9c1.7,0,2.7,1.1,2.7,2.8
						c0,0.2,0,0.4,0,0.6h-4.7c0.1,1.3,1.1,2,2.3,2c0.6,0,1.3-0.2,1.8-0.6l0.4,0.7c-0.7,0.5-1.5,0.7-2.3,0.7
						C66.3,136.8,64.9,135.7,64.9,133.7L64.9,133.7z M66,133.2h3.8c-0.1-1.2-0.8-1.8-1.8-1.8C66.9,131.4,66.1,132.2,66,133.2
						L66,133.2z"/>
					<path id="Shape_311_" class="st11" d="M73.2,130.8h0.8l0.1,1.4h0c0.6-0.9,1.5-1.5,2.6-1.5c0.4,0,0.8,0.1,1.2,0.2l-0.2,0.9
						c-0.3-0.1-0.7-0.2-1.1-0.2c-0.9,0-1.8,0.5-2.4,1.7v3.5h-1L73.2,130.8L73.2,130.8z"/>
					<path id="Shape_310_" class="st11" d="M36.5,150.1h0.8l0.1,1.4h0c0.6-0.9,1.5-1.5,2.6-1.5c0.4,0,0.8,0.1,1.2,0.2l-0.2,0.9
						c-0.3-0.1-0.7-0.2-1.1-0.2c-0.9,0-1.8,0.5-2.4,1.7v3.5h-1V150.1L36.5,150.1z"/>
					<polygon id="Shape_309_" class="st11" points="43.4,147.3 44.4,147.3 44.4,153.2 44.4,153.2 47.6,150.1 48.8,150.1 46.4,152.4 
						49.1,156 48,156 45.8,153 44.4,154.4 44.4,156 43.4,156 43.4,147.3 					"/>
					<path id="Shape_308_" class="st11" d="M51.9,153.7v-2.8h-1.7v-0.8l1.7-0.1l0.1-1.9h0.8v1.9h2.9v0.8h-2.9v2.8
						c0,1.1,0.4,1.6,1.5,1.6c0.5,0,1-0.1,1.4-0.3l0.2,0.7c-0.6,0.2-1.2,0.4-1.9,0.4C52.5,156.2,51.9,155.2,51.9,153.7L51.9,153.7z"
						/>
					<path id="Shape_307_" class="st8" d="M137.9,70.8h2.4c1.8,0,3,0.6,3,2.4c0,1.7-1.2,2.5-3,2.5h-1.4v3.2h-1V70.8L137.9,70.8z
						 M140.2,74.8c1.4,0,2.1-0.5,2.1-1.6c0-1.1-0.7-1.5-2.1-1.5h-1.3v3.2H140.2L140.2,74.8z"/>
					<path id="Shape_306_" class="st8" d="M144.8,81.2l0.2-0.8c0.2,0.1,0.4,0.1,0.5,0.1c0.8,0,1.3-0.5,1.6-1.3l0.2-0.4l-2.8-5.9h1
						l1.5,3.3c0.2,0.5,0.5,1.1,0.7,1.7h0c0.2-0.6,0.4-1.2,0.6-1.7l1.3-3.3h1l-2.6,6.4c-0.4,1.2-1.2,2.1-2.5,2.1
						C145.3,81.3,145.1,81.3,144.8,81.2L144.8,81.2z"/>
					<path id="Shape_305_" class="st8" d="M153.8,76.5v-2.8h-1.7v-0.8l1.7-0.1L154,71h0.8v1.9h2.9v0.8h-2.9v2.8
						c0,1.1,0.4,1.6,1.5,1.6c0.5,0,1-0.1,1.4-0.3l0.2,0.7c-0.6,0.2-1.2,0.4-1.9,0.4C154.4,78.9,153.8,77.9,153.8,76.5L153.8,76.5z"
						/>
					<path id="Shape_304_" class="st8" d="M159.8,70.1h1v2.4l-0.1,1.4h0c0.6-0.7,1.3-1.2,2.2-1.2c1.4,0,2.1,0.8,2.1,2.4v3.7h-1v-3.6
						c0-1.1-0.4-1.7-1.4-1.7c-0.7,0-1.2,0.4-1.9,1.1v4.1h-1V70.1L159.8,70.1z"/>
					<path id="Shape_303_" class="st8" d="M166.7,75.8c0-2,1.4-3.1,2.9-3.1s2.9,1.1,2.9,3.1s-1.4,3.1-2.9,3.1S166.7,77.8,166.7,75.8
						L166.7,75.8z M171.6,75.8c0-1.4-0.8-2.3-1.9-2.3s-1.9,0.9-1.9,2.3s0.8,2.3,1.9,2.3S171.6,77.2,171.6,75.8L171.6,75.8z"/>
					<path id="Shape_302_" class="st8" d="M174.5,72.9h0.8l0.1,1h0c0.6-0.7,1.3-1.2,2.2-1.2c1.4,0,2.1,0.8,2.1,2.4v3.7h-1v-3.5
						c0-1.1-0.4-1.7-1.4-1.7c-0.7,0-1.2,0.4-1.9,1.1v4.1h-1L174.5,72.9L174.5,72.9z"/>
					<path id="Shape_301_" class="st8" d="M137.6,96.9l0.6-0.6c0.3,0.6,1,1,1.7,1.1c1.1,0,1.7-0.6,1.7-1.9v-4.5h-3.4v-0.9h4.4v5.4
						c0,1.5-0.7,2.7-2.6,2.7C139.1,98.2,138.2,97.7,137.6,96.9L137.6,96.9z"/>
					<path id="Shape_300_" class="st8" d="M145,96.6c0-1.3,1.2-2,4.3-2.2c0-0.8-0.4-1.5-1.6-1.5c-0.7,0-1.5,0.3-2.1,0.7l-0.4-0.7
						c0.8-0.5,1.7-0.8,2.6-0.9c1.6,0,2.4,1,2.4,2.4v3.6h-0.8l-0.1-0.8h0c-0.7,0.6-1.5,0.9-2.3,0.9C145.9,98.2,145,97.6,145,96.6
						L145,96.6z M149.3,96.6V95c-2.5,0.2-3.3,0.7-3.3,1.5c0,0.7,0.6,0.9,1.3,0.9C148,97.4,148.7,97.1,149.3,96.6L149.3,96.6z"/>
					<path id="Shape_299_" class="st8" d="M152,92.2h1l1.4,3.4c0.2,0.6,0.5,1.2,0.7,1.7h0c0.2-0.6,0.4-1.1,0.6-1.7l1.4-3.4h1
						l-2.5,5.9h-1.1L152,92.2z"/>
					<path id="Shape_298_" class="st8" d="M159.7,96.6c0-1.3,1.2-2,4.3-2.2c0-0.8-0.4-1.5-1.6-1.5c-0.7,0-1.5,0.3-2.1,0.7l-0.4-0.7
						c0.8-0.5,1.7-0.8,2.6-0.9c1.6,0,2.4,1,2.4,2.4v3.6h-0.8l-0.1-0.8h0c-0.7,0.6-1.5,0.9-2.3,0.9C160.6,98.2,159.7,97.6,159.7,96.6
						L159.7,96.6z M164,96.6V95c-2.5,0.2-3.3,0.7-3.3,1.5c0,0.7,0.6,0.9,1.3,0.9C162.7,97.4,163.4,97.1,164,96.6L164,96.6z"/>
					<path id="Shape_297_" class="st8" d="M137.8,111.5h0.8l0.1,1h0c0.6-0.7,1.3-1.2,2.2-1.2c1.4,0,2.1,0.8,2.1,2.4v3.7h-1v-3.5
						c0-1.1-0.4-1.7-1.4-1.7c-0.7,0-1.2,0.4-1.9,1.1v4.1h-1L137.8,111.5L137.8,111.5z"/>
					<path id="Shape_296_" class="st8" d="M144.9,118.5c0-0.5,0.3-0.9,1-1.3v0c-0.4-0.2-0.6-0.6-0.6-1c0-0.5,0.3-0.9,0.7-1.1v0
						c-0.5-0.4-0.7-0.9-0.7-1.5c0-1.3,1.1-2.1,2.3-2.1c0.3,0,0.6,0,0.9,0.1h2.5v0.8h-1.5c0.3,0.3,0.5,0.7,0.5,1.2c0,1.3-1,2-2.3,2
						c-0.3,0-0.7-0.1-1-0.2c-0.3,0.1-0.4,0.4-0.5,0.7c0,0.5,0.4,0.7,1.2,0.7h1.3c1.5,0,2.3,0.4,2.3,1.4c0,1.1-1.3,2.1-3.3,2.1
						C145.9,120.1,144.9,119.5,144.9,118.5L144.9,118.5z M149.9,118.2c0-0.6-0.4-0.7-1.4-0.7h-1.2c-0.3,0-0.6,0-0.9-0.1
						c-0.6,0.3-0.8,0.6-0.8,1c0,0.6,0.7,1,1.9,1C149.1,119.4,149.9,118.8,149.9,118.2L149.9,118.2z M148.9,113.4
						c0-0.7-0.6-1.3-1.4-1.3c-0.8,0-1.4,0.6-1.3,1.4s0.6,1.4,1.4,1.4c0.4,0,0.7-0.1,1-0.4S148.9,113.8,148.9,113.4L148.9,113.4z"/>
					<path id="Shape_295_" class="st8" d="M155.2,112.3h-2.8v-0.8h3.8v5.9h-1V112.3L155.2,112.3z M154.8,109.5
						c0-0.3,0.2-0.6,0.5-0.8c0.3-0.1,0.7-0.1,0.9,0.2c0.2,0.2,0.3,0.6,0.2,0.9s-0.4,0.5-0.7,0.5c-0.2,0-0.4-0.1-0.6-0.2
						C154.9,109.9,154.8,109.7,154.8,109.5L154.8,109.5z"/>
					<path id="Shape_294_" class="st8" d="M159.8,111.5h0.8l0.1,1h0c0.6-0.7,1.3-1.2,2.2-1.2c1.4,0,2.1,0.8,2.1,2.4v3.7h-1v-3.5
						c0-1.1-0.4-1.7-1.4-1.7c-0.7,0-1.2,0.4-1.9,1.1v4.1h-1V111.5L159.8,111.5z"/>
					<path id="Shape_293_" class="st8" d="M169,114.3l-2.1-2.9h1.1l0.9,1.3c0.2,0.3,0.4,0.7,0.7,1h0c0.2-0.3,0.5-0.7,0.7-1l0.9-1.3
						h1.1l-2.1,2.9l2.3,3h-1.1l-1-1.4c-0.2-0.3-0.5-0.7-0.8-1.1h0c-0.2,0.4-0.5,0.7-0.7,1.1l-1,1.4h-1.1L169,114.3z"/>
					<path id="Shape_292_" class="st8" d="M137.5,128.7h1.2l1.1,3.4l0.4,1.3h0l0.4-1.3l1.1-3.4h1.2v8h-1v-4c0-0.8,0.1-2.1,0.2-2.8h0
						l-0.4,1.6l-1.1,3.1h-0.7l-1.1-3.1l-0.5-1.6h0c0.1,0.7,0.2,2,0.2,2.8v4h-1L137.5,128.7L137.5,128.7z"/>
					<path id="Shape_291_" class="st8" d="M144.8,139.1l0.2-0.8c0.2,0.1,0.4,0.1,0.5,0.1c0.8,0,1.3-0.5,1.6-1.3l0.2-0.4l-2.8-5.9h1
						l1.5,3.3c0.2,0.5,0.5,1.1,0.7,1.7h0c0.2-0.6,0.4-1.2,0.6-1.7l1.3-3.3h1l-2.6,6.4c-0.4,1.2-1.2,2.1-2.5,2.1
						C145.3,139.3,145.1,139.2,144.8,139.1L144.8,139.1z"/>
					<path id="Shape_290_" class="st8" d="M152.2,135.7l0.6-0.7c0.6,0.6,1.5,1,2.3,1c1.1,0,1.8-0.5,1.8-1.3c0-0.9-0.6-1.1-1.4-1.5
						l-1.1-0.5c-0.8-0.3-1.8-0.9-1.8-2.1s1.1-2.1,2.6-2.1c0.9,0,1.8,0.3,2.5,1l-0.5,0.7c-0.5-0.5-1.2-0.8-2-0.8
						c-0.9,0-1.6,0.4-1.6,1.2c0,0.7,0.7,1,1.4,1.3l1.1,0.5c1,0.4,1.8,0.9,1.8,2.1c0,1.3-1.1,2.3-2.8,2.3
						C154,136.8,152.9,136.4,152.2,135.7L152.2,135.7z"/>
					<path id="Shape_289_" class="st8" d="M161.8,136.8c-1.6-0.3-2.6-1.8-2.6-4.1c0-2.6,1.2-4.1,3.1-4.1c1.8,0,3.1,1.5,3.1,4.1
						c0,2.3-1,3.8-2.5,4.1c0.3,0.7,1,1.1,1.8,1c0.2,0,0.4,0,0.6-0.1l0.2,0.8c-0.3,0.1-0.6,0.2-0.9,0.2
						C163.4,138.8,162.2,138,161.8,136.8L161.8,136.8z M164.3,132.7c0-2-0.8-3.2-2-3.2s-2,1.2-2,3.2c0,2.1,0.8,3.3,2,3.3
						S164.3,134.8,164.3,132.7L164.3,132.7z"/>
					<polygon id="Shape_288_" class="st8" points="167.6,128.7 168.6,128.7 168.6,135.8 172.6,135.8 172.6,136.7 167.6,136.7 					
						"/>
					<path id="Shape_287_" class="st8" d="M137.2,152c0-2.6,1.3-4.1,3.1-4.1c1.8,0,3.1,1.5,3.1,4.1s-1.3,4.2-3.1,4.2
						C138.5,156.2,137.2,154.6,137.2,152L137.2,152z M142.4,152c0-2-0.8-3.2-2-3.2c-1.2,0-2,1.2-2,3.2c0,2,0.8,3.3,2,3.3
						C141.5,155.3,142.3,154,142.4,152L142.4,152z"/>
					<path id="Shape_286_" class="st8" d="M145.1,150.1h0.8l0.1,0.8h0c0.5-0.5,1.3-0.9,2.1-0.9c1.6,0,2.5,1.2,2.5,3
						c0,2-1.3,3.2-2.7,3.2c-0.7,0-1.3-0.3-1.8-0.8h0l0,1.1v2h-1V150.1L145.1,150.1z M149.5,153c0-1.3-0.5-2.2-1.7-2.2
						c-0.7,0.1-1.3,0.4-1.8,0.9v2.9c0.4,0.4,1,0.7,1.6,0.7C148.8,155.3,149.5,154.4,149.5,153L149.5,153z"/>
					<path id="Shape_285_" class="st8" d="M152.2,153c0-0.8,0.3-1.6,0.8-2.2c0.6-0.6,1.4-0.9,2.2-0.9c1.7,0,2.7,1.1,2.7,2.8
						c0,0.2,0,0.4,0,0.6h-4.7c0.1,1.3,1.1,2,2.3,2c0.6,0,1.3-0.2,1.8-0.6l0.4,0.7c-0.7,0.5-1.5,0.7-2.3,0.7
						C153.6,156.2,152.2,155,152.2,153L152.2,153z M153.2,152.6h3.8c-0.1-1.2-0.8-1.8-1.8-1.8C154.2,150.7,153.3,151.5,153.2,152.6
						L153.2,152.6z"/>
					<path id="Shape_284_" class="st8" d="M159.8,150.1h0.8l0.1,1h0c0.6-0.7,1.3-1.2,2.2-1.2c1.4,0,2.1,0.8,2.1,2.4v3.7h-1v-3.5
						c0-1.1-0.4-1.7-1.4-1.7c-0.7,0-1.2,0.4-1.9,1.1v4.1h-1V150.1L159.8,150.1z"/>
					<path id="Shape_283_" class="st8" d="M166.8,155l0.6-0.7c0.6,0.6,1.5,1,2.3,1c1.1,0,1.8-0.5,1.8-1.3c0-0.9-0.6-1.1-1.4-1.5
						l-1.1-0.5c-0.8-0.3-1.8-0.9-1.8-2.1s1.1-2.1,2.6-2.1c0.9,0,1.8,0.3,2.5,1l-0.5,0.7c-0.5-0.5-1.2-0.8-2-0.8
						c-0.9,0-1.6,0.4-1.6,1.2c0,0.7,0.7,1,1.4,1.3l1.1,0.5c1,0.4,1.8,0.9,1.8,2.1c0,1.3-1.1,2.3-2.8,2.3
						C168.6,156.1,167.6,155.7,166.8,155L166.8,155z"/>
					<path id="Shape_282_" class="st8" d="M174.2,155l0.6-0.7c0.6,0.6,1.5,1,2.3,1c1.1,0,1.8-0.5,1.8-1.3c0-0.9-0.6-1.1-1.4-1.5
						l-1.1-0.5c-0.8-0.3-1.8-0.9-1.8-2.1s1.1-2.1,2.6-2.1c0.9,0,1.8,0.3,2.5,1l-0.5,0.7c-0.5-0.5-1.2-0.8-2-0.8
						c-0.9,0-1.6,0.4-1.6,1.2c0,0.7,0.7,1,1.4,1.3l1.1,0.5c1,0.4,1.8,0.9,1.8,2.1c0,1.3-1.1,2.3-2.8,2.3
						C176,156.1,174.9,155.7,174.2,155L174.2,155z"/>
					<polygon id="Shape_281_" class="st8" points="182.3,148 183.3,148 183.3,155.1 187.3,155.1 187.3,156 182.3,156 					"/>
					<path id="Shape_280_" class="st10" d="M258.3,66.5h1.1l2.7,8h-1.1l-0.8-2.4h-2.9l-0.8,2.4h-1.1L258.3,66.5z M257.7,71.2h2.4
						l-0.4-1.2c-0.3-0.9-0.5-1.7-0.8-2.7h0c-0.3,0.9-0.5,1.8-0.8,2.7L257.7,71.2z"/>
					<path id="Shape_279_" class="st10" d="M263.7,68.5h0.8l0.1,0.8h0c0.5-0.5,1.3-0.9,2.1-0.9c1.6,0,2.5,1.2,2.5,3
						c0,2-1.3,3.2-2.7,3.2c-0.7,0-1.3-0.3-1.8-0.8h0l0,1.1v2h-1V68.5L263.7,68.5z M268.1,71.4c0-1.3-0.5-2.2-1.7-2.2
						c-0.7,0.1-1.3,0.4-1.8,0.9V73c0.4,0.4,1,0.7,1.6,0.7C267.4,73.8,268.1,72.9,268.1,71.4L268.1,71.4z"/>
					<path id="Shape_278_" class="st10" d="M271,68.5h0.8l0.1,0.8h0c0.5-0.6,1.3-0.9,2.1-0.9c1.6,0,2.5,1.2,2.5,3
						c0,2-1.3,3.2-2.7,3.2c-0.7,0-1.3-0.3-1.8-0.8h0l0,1.1v2h-1L271,68.5L271,68.5z M275.5,71.4c0-1.3-0.5-2.2-1.7-2.2
						c-0.7,0.1-1.3,0.4-1.8,0.9V73c0.4,0.4,1,0.7,1.6,0.7C274.7,73.8,275.5,72.9,275.5,71.4L275.5,71.4z"/>
					<path id="Shape_277_" class="st10" d="M278.5,73.6h2.2v-5.7H279v-0.6c0.7-0.1,1.3-0.3,1.9-0.6h0.7v6.9h2v0.8h-5.2V73.6
						L278.5,73.6z"/>
					<path id="Shape_276_" class="st10" d="M258.3,109.7h1.1l2.7,8h-1.1l-0.8-2.4h-2.9l-0.8,2.4h-1.1L258.3,109.7z M257.7,114.4h2.4
						l-0.4-1.2c-0.3-0.9-0.5-1.7-0.8-2.7h0c-0.3,0.9-0.5,1.8-0.8,2.7L257.7,114.4z"/>
					<path id="Shape_275_" class="st10" d="M263.7,111.8h0.8l0.1,0.8h0c0.5-0.5,1.3-0.9,2.1-0.9c1.6,0,2.5,1.2,2.5,3
						c0,2-1.3,3.2-2.7,3.2c-0.7,0-1.3-0.3-1.8-0.8h0l0,1.1v2h-1L263.7,111.8L263.7,111.8z M268.1,114.7c0-1.3-0.5-2.2-1.7-2.2
						c-0.7,0.1-1.3,0.4-1.8,0.9v2.9c0.4,0.4,1,0.7,1.6,0.7C267.4,117,268.1,116.1,268.1,114.7L268.1,114.7z"/>
					<path id="Shape_274_" class="st10" d="M271,111.8h0.8l0.1,0.8h0c0.5-0.5,1.3-0.9,2.1-0.9c1.6,0,2.5,1.2,2.5,3
						c0,2-1.3,3.2-2.7,3.2c-0.7,0-1.3-0.3-1.8-0.8h0l0,1.1v2h-1L271,111.8L271,111.8z M275.5,114.7c0-1.3-0.5-2.2-1.7-2.2
						c-0.7,0.1-1.3,0.4-1.8,0.9v2.9c0.4,0.4,1,0.7,1.6,0.7C274.7,117,275.5,116.1,275.5,114.7L275.5,114.7z"/>
					<path id="Shape_273_" class="st10" d="M278.1,117.1c2.6-2.3,4.1-3.7,4.1-5c0-0.9-0.5-1.5-1.7-1.5c-0.7,0-1.4,0.4-1.9,0.9
						l-0.6-0.6c0.6-0.7,1.6-1.2,2.6-1.2c1.6,0,2.5,0.9,2.5,2.3c0,1.5-1.5,2.9-3.6,4.8c0.5,0,1-0.1,1.5-0.1h2.6v0.9h-5.5V117.1
						L278.1,117.1z"/>
					<path id="Shape_272_" class="st10" d="M258.6,153.1h1.1l2.7,8h-1.1l-0.8-2.4h-2.9l-0.8,2.4h-1L258.6,153.1z M257.9,157.8h2.4
						l-0.4-1.2c-0.3-0.9-0.5-1.7-0.8-2.7h0c-0.3,0.9-0.5,1.8-0.8,2.7L257.9,157.8z"/>
					<path id="Shape_271_" class="st10" d="M263.9,155.1h0.8l0.1,0.8h0c0.5-0.5,1.3-0.9,2.1-0.9c1.6,0,2.5,1.2,2.5,3
						c0,2-1.3,3.2-2.7,3.2c-0.7,0-1.3-0.3-1.8-0.8h0l0,1.1v2h-1L263.9,155.1L263.9,155.1z M268.4,158c0-1.3-0.5-2.2-1.7-2.2
						c-0.7,0.1-1.3,0.4-1.8,0.9v2.9c0.4,0.4,1,0.7,1.6,0.7C267.6,160.4,268.4,159.5,268.4,158L268.4,158z"/>
					<path id="Shape_270_" class="st10" d="M271.3,155.1h0.8l0.1,0.8h0c0.5-0.5,1.3-0.9,2.1-0.9c1.6,0,2.5,1.2,2.5,3
						c0,2-1.3,3.2-2.7,3.2c-0.7,0-1.3-0.3-1.8-0.8h0l0,1.1v2h-1L271.3,155.1L271.3,155.1z M275.7,158c0-1.3-0.5-2.2-1.7-2.2
						c-0.7,0.1-1.3,0.4-1.8,0.9v2.9c0.4,0.4,1,0.7,1.6,0.7C274.9,160.4,275.7,159.5,275.7,158L275.7,158z"/>
					<path id="Shape_269_" class="st10" d="M278.2,160.1l0.5-0.7c0.6,0.6,1.4,0.9,2.2,0.9c1.1,0,1.9-0.6,1.9-1.4s-0.8-1.5-2.8-1.5
						v-0.8c1.8,0,2.6-0.6,2.6-1.5s-0.6-1.2-1.6-1.2c-0.7,0-1.4,0.3-1.9,0.8l-0.5-0.6c0.7-0.6,1.6-1,2.5-1c1.5,0,2.6,0.7,2.6,2
						c0,0.9-0.7,1.5-1.7,1.9v0c1,0.2,1.9,0.9,1.9,2c0,1.4-1.3,2.2-2.8,2.2C279.9,161.2,278.9,160.8,278.2,160.1L278.2,160.1z"/>
					<path id="Shape_268_" class="st12" d="M216.7,31.7h-0.8V20.3c0-0.6-0.5-1.1-1.1-1.1H206v-0.7h8.7c0.5,0,1,0.2,1.4,0.5
						s0.6,0.8,0.6,1.4V31.7L216.7,31.7z"/>
					<path id="Shape_267_" class="st12" d="M18.9,31.7h-0.8V20.3c0-1,0.9-1.9,1.9-1.9h8.7v0.8h-8.7c-0.6,0-1.1,0.5-1.1,1.1
						L18.9,31.7L18.9,31.7z"/>
				</g>
			</g>
		</g>
	</g>
</g>
</svg>
